<?xml version="1.0" encoding="UTF-8" standalone="no"?><svg xmlns="http://www.w3.org/2000/svg" xmlns:xlink="http://www.w3.org/1999/xlink" contentScriptType="application/ecmascript" contentStyleType="text/css" height="2100px" preserveAspectRatio="none" style="width:1541px;height:2100px;" version="1.1" viewBox="0 0 1541 2100" width="1541.25px" zoomAndPan="magnify"><defs><filter height="300%" id="f6iqkf6bu91v9" width="300%" x="-1" y="-1"><feGaussianBlur result="blurOut" stdDeviation="3.75"/><feColorMatrix in="blurOut" result="blurOut2" type="matrix" values="0 0 0 0 0 0 0 0 0 0 0 0 0 0 0 0 0 0 .4 0"/><feOffset dx="7.5" dy="7.5" in="blurOut2" result="blurOut3"/><feBlend in="SourceGraphic" in2="blurOut3" mode="normal"/></filter></defs><g><text fill="#000000" font-family="sans-serif" font-size="33.75" font-weight="bold" lengthAdjust="spacingAndGlyphs" textLength="1098.75" x="219.375" y="50.0775">ACTIVITY DIAGRAM PELANGGAN (SEDERHANA) - GEGARES</text><ellipse cx="327.1875" cy="120.097" fill="#000000" filter="url(#f6iqkf6bu91v9)" rx="18.75" ry="18.75" style="stroke: none; stroke-width: 1.875;"/><rect fill="#EBF8FF" filter="url(#f6iqkf6bu91v9)" height="63.6914" rx="23.4375" ry="23.4375" style="stroke: #1A365D; stroke-width: 2.8125;" width="358.125" x="148.125" y="176.347"/><text fill="#000000" font-family="sans-serif" font-size="22.5" lengthAdjust="spacingAndGlyphs" textLength="320.625" x="166.875" y="215.9821">Membuka Website Gegares</text><rect fill="#EBF8FF" filter="url(#f6iqkf6bu91v9)" height="63.6914" rx="23.4375" ry="23.4375" style="stroke: #1A365D; stroke-width: 2.8125;" width="303.75" x="175.3125" y="469.4843"/><text fill="#000000" font-family="sans-serif" font-size="22.5" lengthAdjust="spacingAndGlyphs" textLength="266.25" x="194.0625" y="509.1193">Login / Registrasi Akun</text><polygon fill="#FEFCBF" filter="url(#f6iqkf6bu91v9)" points="255.9375,378.7299,398.4375,378.7299,420.9375,401.2299,398.4375,423.7299,255.9375,423.7299,233.4375,401.2299,255.9375,378.7299" style="stroke: #2B6CB0; stroke-width: 2.8125;"/><text fill="#000000" font-family="sans-serif" font-size="20.625" lengthAdjust="spacingAndGlyphs" textLength="67.5" x="334.6875" y="442.8745">Belum</text><text fill="#000000" font-family="sans-serif" font-size="20.625" lengthAdjust="spacingAndGlyphs" textLength="142.5" x="255.9375" y="408.3701">Sudah Login?</text><text fill="#000000" font-family="sans-serif" font-size="20.625" lengthAdjust="spacingAndGlyphs" textLength="26.25" x="420.9375" y="396.3657">Ya</text><polygon fill="#FEFCBF" filter="url(#f6iqkf6bu91v9)" points="327.1875,699.9921,349.6875,722.4921,327.1875,744.9921,304.6875,722.4921,327.1875,699.9921" style="stroke: #2B6CB0; stroke-width: 2.8125;"/><rect fill="#EBF8FF" filter="url(#f6iqkf6bu91v9)" height="63.6914" rx="23.4375" ry="23.4375" style="stroke: #1A365D; stroke-width: 2.8125;" width="579.375" x="37.5" y="782.4921"/><text fill="#000000" font-family="sans-serif" font-size="22.5" lengthAdjust="spacingAndGlyphs" textLength="541.875" x="56.25" y="822.1271">Cari / Pilih Jajanan Pasar (Katalog / AI Chatbot)</text><rect fill="#EBF8FF" filter="url(#f6iqkf6bu91v9)" height="63.6914" rx="23.4375" ry="23.4375" style="stroke: #1A365D; stroke-width: 2.8125;" width="436.875" x="108.75" y="984.8749"/><text fill="#000000" font-family="sans-serif" font-size="22.5" lengthAdjust="spacingAndGlyphs" textLength="399.375" x="127.5" y="1024.5099">Tambah ke Keranjang &amp; Checkout</text><rect fill="#EBF8FF" filter="url(#f6iqkf6bu91v9)" height="63.6914" rx="23.4375" ry="23.4375" style="stroke: #1A365D; stroke-width: 2.8125;" width="406.875" x="123.75" y="1187.2577"/><text fill="#000000" font-family="sans-serif" font-size="22.5" lengthAdjust="spacingAndGlyphs" textLength="369.375" x="142.5" y="1226.8927">Bayar Pesanan via QRIS Pakasir</text><rect fill="#EBF8FF" filter="url(#f6iqkf6bu91v9)" height="63.6914" rx="23.4375" ry="23.4375" style="stroke: #1A365D; stroke-width: 2.8125;" width="466.875" x="93.75" y="1633.3319"/><text fill="#000000" font-family="sans-serif" font-size="22.5" lengthAdjust="spacingAndGlyphs" textLength="429.375" x="112.5" y="1672.9669">Lacak Pengiriman &amp; Terima Pesanan</text><rect fill="#EBF8FF" filter="url(#f6iqkf6bu91v9)" height="63.6914" rx="23.4375" ry="23.4375" style="stroke: #1A365D; stroke-width: 2.8125;" width="388.125" x="133.125" y="1835.7147"/><text fill="#000000" font-family="sans-serif" font-size="22.5" lengthAdjust="spacingAndGlyphs" textLength="350.625" x="151.875" y="1875.3497">Beri Ulasan Produk (Opsional)</text><ellipse cx="327.1875" cy="2058.7225" fill="#FFFFFF" filter="url(#f6iqkf6bu91v9)" rx="20.625" ry="20.625" style="stroke: #000000; stroke-width: 1.875;"/><ellipse cx="327.1875" cy="2058.7225" fill="#000000" rx="11.25" ry="11.25" style="stroke: #7F7F7F; stroke-width: 1.875;"/><rect fill="#EBF8FF" filter="url(#f6iqkf6bu91v9)" height="63.6914" rx="23.4375" ry="23.4375" style="stroke: #1A365D; stroke-width: 2.8125;" width="508.125" x="744.375" y="277.5385"/><text fill="#000000" font-family="sans-serif" font-size="22.5" lengthAdjust="spacingAndGlyphs" textLength="470.625" x="763.125" y="317.1735">Menampilkan Halaman Depan &amp; Katalog</text><rect fill="#EBF8FF" filter="url(#f6iqkf6bu91v9)" height="63.6914" rx="23.4375" ry="23.4375" style="stroke: #1A365D; stroke-width: 2.8125;" width="365.625" x="815.625" y="598.8007"/><text fill="#000000" font-family="sans-serif" font-size="22.5" lengthAdjust="spacingAndGlyphs" textLength="328.125" x="834.375" y="638.4357">Validasi Akun &amp; Set Session</text><rect fill="#EBF8FF" filter="url(#f6iqkf6bu91v9)" height="63.6914" rx="23.4375" ry="23.4375" style="stroke: #1A365D; stroke-width: 2.8125;" width="356.25" x="820.3125" y="883.6835"/><text fill="#000000" font-family="sans-serif" font-size="22.5" lengthAdjust="spacingAndGlyphs" textLength="318.75" x="839.0625" y="923.3185">Menampilkan Detail Produk</text><rect fill="#EBF8FF" filter="url(#f6iqkf6bu91v9)" height="63.6914" rx="23.4375" ry="23.4375" style="stroke: #1A365D; stroke-width: 2.8125;" width="622.5" x="687.1875" y="1086.0663"/><text fill="#000000" font-family="sans-serif" font-size="22.5" lengthAdjust="spacingAndGlyphs" textLength="585" x="705.9375" y="1125.7013">Hitung Ongkir (Biteship) &amp; Tampilkan QRIS Pakasir</text><rect fill="#EBF8FF" filter="url(#f6iqkf6bu91v9)" height="63.6914" rx="23.4375" ry="23.4375" style="stroke: #1A365D; stroke-width: 2.8125;" width="615" x="690.9375" y="1288.4491"/><text fill="#000000" font-family="sans-serif" font-size="22.5" lengthAdjust="spacingAndGlyphs" textLength="577.5" x="709.6875" y="1328.0841">Verifikasi Webhook Pakasir &amp; Update Status Paid</text><polygon fill="#FEFCBF" filter="url(#f6iqkf6bu91v9)" points="887.8125,1389.6405,1109.0625,1389.6405,1131.5625,1412.1405,1109.0625,1434.6405,887.8125,1434.6405,865.3125,1412.1405,887.8125,1389.6405" style="stroke: #2B6CB0; stroke-width: 2.8125;"/><text fill="#000000" font-family="sans-serif" font-size="20.625" lengthAdjust="spacingAndGlyphs" textLength="221.25" x="887.8125" y="1419.2807">Status Pembayaran?</text><text fill="#000000" font-family="sans-serif" font-size="20.625" lengthAdjust="spacingAndGlyphs" textLength="163.125" x="702.1875" y="1407.2763">Gagal / Expired</text><text fill="#000000" font-family="sans-serif" font-size="20.625" lengthAdjust="spacingAndGlyphs" textLength="155.625" x="1131.5625" y="1407.2763">Berhasil / Paid</text><rect fill="#EBF8FF" filter="url(#f6iqkf6bu91v9)" height="63.6914" rx="23.4375" ry="23.4375" style="stroke: #1A365D; stroke-width: 2.8125;" width="273.75" x="635.625" y="1453.3905"/><text fill="#000000" font-family="sans-serif" font-size="22.5" lengthAdjust="spacingAndGlyphs" textLength="236.25" x="654.375" y="1493.0255">Pesanan Dibatalkan</text><ellipse cx="772.5" cy="1575.2069" fill="#FFFFFF" filter="url(#f6iqkf6bu91v9)" rx="20.625" ry="20.625" style="stroke: #000000; stroke-width: 1.875;"/><ellipse cx="772.5" cy="1575.2069" fill="#000000" rx="11.25" ry="11.25" style="stroke: #7F7F7F; stroke-width: 1.875;"/><rect fill="#EBF8FF" filter="url(#f6iqkf6bu91v9)" height="63.6914" rx="23.4375" ry="23.4375" style="stroke: #1A365D; stroke-width: 2.8125;" width="555" x="946.875" y="1453.3905"/><text fill="#000000" font-family="sans-serif" font-size="22.5" lengthAdjust="spacingAndGlyphs" textLength="517.5" x="965.625" y="1493.0255">Kurangi Stok &amp; Auto-Booking Kurir (Biteship)</text><rect fill="#EBF8FF" filter="url(#f6iqkf6bu91v9)" height="63.6914" rx="23.4375" ry="23.4375" style="stroke: #1A365D; stroke-width: 2.8125;" width="341.25" x="827.8125" y="1734.5233"/><text fill="#000000" font-family="sans-serif" font-size="22.5" lengthAdjust="spacingAndGlyphs" textLength="303.75" x="846.5625" y="1774.1583">Update Status Completed</text><rect fill="#EBF8FF" filter="url(#f6iqkf6bu91v9)" height="63.6914" rx="23.4375" ry="23.4375" style="stroke: #1A365D; stroke-width: 2.8125;" width="345" x="825.9375" y="1936.9061"/><text fill="#000000" font-family="sans-serif" font-size="22.5" lengthAdjust="spacingAndGlyphs" textLength="307.5" x="844.6875" y="1976.5411">Simpan Ulasan Pelanggan</text><line style="stroke: #A80036; stroke-width: 2.8125;" x1="327.1875" x2="327.1875" y1="138.847" y2="176.347"/><polygon fill="#A80036" points="319.6875,157.597,327.1875,176.347,334.6875,157.597,327.1875,165.097" style="stroke: #A80036; stroke-width: 1.875;"/><line style="stroke: #A80036; stroke-width: 2.8125;" x1="327.1875" x2="327.1875" y1="423.7299" y2="469.4843"/><polygon fill="#A80036" points="319.6875,450.7343,327.1875,469.4843,334.6875,450.7343,327.1875,458.2343" style="stroke: #A80036; stroke-width: 1.875;"/><line style="stroke: #A80036; stroke-width: 2.8125;" x1="420.9375" x2="528.75" y1="401.2299" y2="401.2299"/><polygon fill="#A80036" points="521.25,547.2382,528.75,565.9882,536.25,547.2382,528.75,554.7382" style="stroke: #A80036; stroke-width: 2.8125;"/><line style="stroke: #A80036; stroke-width: 2.8125;" x1="528.75" x2="528.75" y1="401.2299" y2="722.4921"/><line style="stroke: #A80036; stroke-width: 2.8125;" x1="528.75" x2="349.6875" y1="722.4921" y2="722.4921"/><polygon fill="#A80036" points="368.4375,714.9921,349.6875,722.4921,368.4375,729.9921,360.9375,722.4921" style="stroke: #A80036; stroke-width: 1.875;"/><line style="stroke: #A80036; stroke-width: 2.8125;" x1="327.1875" x2="327.1875" y1="744.9921" y2="782.4921"/><polygon fill="#A80036" points="319.6875,763.7421,327.1875,782.4921,334.6875,763.7421,327.1875,771.2421" style="stroke: #A80036; stroke-width: 1.875;"/><line style="stroke: #A80036; stroke-width: 2.8125;" x1="772.5" x2="772.5" y1="1517.0819" y2="1554.5819"/><polygon fill="#A80036" points="765,1535.8319,772.5,1554.5819,780,1535.8319,772.5,1543.3319" style="stroke: #A80036; stroke-width: 1.875;"/><line style="stroke: #A80036; stroke-width: 2.8125;" x1="865.3125" x2="772.5" y1="1412.1405" y2="1412.1405"/><line style="stroke: #A80036; stroke-width: 2.8125;" x1="772.5" x2="772.5" y1="1412.1405" y2="1453.3905"/><polygon fill="#A80036" points="765,1434.6405,772.5,1453.3905,780,1434.6405,772.5,1442.1405" style="stroke: #A80036; stroke-width: 1.875;"/><line style="stroke: #A80036; stroke-width: 2.8125;" x1="1131.5625" x2="1224.375" y1="1412.1405" y2="1412.1405"/><line style="stroke: #A80036; stroke-width: 2.8125;" x1="1224.375" x2="1224.375" y1="1412.1405" y2="1453.3905"/><polygon fill="#A80036" points="1216.875,1434.6405,1224.375,1453.3905,1231.875,1434.6405,1224.375,1442.1405" style="stroke: #A80036; stroke-width: 1.875;"/><line style="stroke: #A80036; stroke-width: 2.8125;" x1="1224.375" x2="1224.375" y1="1517.0819" y2="1605.2069"/><line style="stroke: #A80036; stroke-width: 2.8125;" x1="1224.375" x2="327.1875" y1="1605.2069" y2="1605.2069"/><line style="stroke: #A80036; stroke-width: 2.8125;" x1="327.1875" x2="327.1875" y1="1605.2069" y2="1633.3319"/><polygon fill="#A80036" points="319.6875,1614.5819,327.1875,1633.3319,334.6875,1614.5819,327.1875,1622.0819" style="stroke: #A80036; stroke-width: 1.875;"/><line style="stroke: #A80036; stroke-width: 2.8125;" x1="998.4375" x2="998.4375" y1="1352.1405" y2="1389.6405"/><polygon fill="#A80036" points="990.9375,1370.8905,998.4375,1389.6405,1005.9375,1370.8905,998.4375,1378.3905" style="stroke: #A80036; stroke-width: 1.875;"/><line style="stroke: #A80036; stroke-width: 2.8125;" x1="327.1875" x2="327.1875" y1="240.0385" y2="249.4135"/><line style="stroke: #A80036; stroke-width: 2.8125;" x1="327.1875" x2="998.4375" y1="249.4135" y2="249.4135"/><line style="stroke: #A80036; stroke-width: 2.8125;" x1="998.4375" x2="998.4375" y1="249.4135" y2="277.5385"/><polygon fill="#A80036" points="990.9375,258.7885,998.4375,277.5385,1005.9375,258.7885,998.4375,266.2885" style="stroke: #A80036; stroke-width: 1.875;"/><line style="stroke: #A80036; stroke-width: 2.8125;" x1="327.1875" x2="327.1875" y1="533.1757" y2="565.9882"/><line style="stroke: #A80036; stroke-width: 2.8125;" x1="327.1875" x2="998.4375" y1="565.9882" y2="565.9882"/><line style="stroke: #A80036; stroke-width: 2.8125;" x1="998.4375" x2="998.4375" y1="565.9882" y2="598.8007"/><polygon fill="#A80036" points="990.9375,580.0507,998.4375,598.8007,1005.9375,580.0507,998.4375,587.5507" style="stroke: #A80036; stroke-width: 1.875;"/><line style="stroke: #A80036; stroke-width: 2.8125;" x1="998.4375" x2="998.4375" y1="662.4921" y2="677.1149"/><line style="stroke: #A80036; stroke-width: 2.8125;" x1="998.4375" x2="327.1875" y1="677.1149" y2="677.1149"/><line style="stroke: #A80036; stroke-width: 2.8125;" x1="327.1875" x2="327.1875" y1="677.1149" y2="699.9921"/><polygon fill="#A80036" points="319.6875,681.2421,327.1875,699.9921,334.6875,681.2421,327.1875,688.7421" style="stroke: #A80036; stroke-width: 1.875;"/><line style="stroke: #A80036; stroke-width: 2.8125;" x1="998.4375" x2="998.4375" y1="341.2299" y2="350.6049"/><line style="stroke: #A80036; stroke-width: 2.8125;" x1="998.4375" x2="327.1875" y1="350.6049" y2="350.6049"/><line style="stroke: #A80036; stroke-width: 2.8125;" x1="327.1875" x2="327.1875" y1="350.6049" y2="378.7299"/><polygon fill="#A80036" points="319.6875,359.9799,327.1875,378.7299,334.6875,359.9799,327.1875,367.4799" style="stroke: #A80036; stroke-width: 1.875;"/><line style="stroke: #A80036; stroke-width: 2.8125;" x1="327.1875" x2="327.1875" y1="846.1835" y2="855.5585"/><line style="stroke: #A80036; stroke-width: 2.8125;" x1="327.1875" x2="998.4375" y1="855.5585" y2="855.5585"/><line style="stroke: #A80036; stroke-width: 2.8125;" x1="998.4375" x2="998.4375" y1="855.5585" y2="883.6835"/><polygon fill="#A80036" points="990.9375,864.9335,998.4375,883.6835,1005.9375,864.9335,998.4375,872.4335" style="stroke: #A80036; stroke-width: 1.875;"/><line style="stroke: #A80036; stroke-width: 2.8125;" x1="998.4375" x2="998.4375" y1="947.3749" y2="956.7499"/><line style="stroke: #A80036; stroke-width: 2.8125;" x1="998.4375" x2="327.1875" y1="956.7499" y2="956.7499"/><line style="stroke: #A80036; stroke-width: 2.8125;" x1="327.1875" x2="327.1875" y1="956.7499" y2="984.8749"/><polygon fill="#A80036" points="319.6875,966.1249,327.1875,984.8749,334.6875,966.1249,327.1875,973.6249" style="stroke: #A80036; stroke-width: 1.875;"/><line style="stroke: #A80036; stroke-width: 2.8125;" x1="327.1875" x2="327.1875" y1="1048.5663" y2="1057.9413"/><line style="stroke: #A80036; stroke-width: 2.8125;" x1="327.1875" x2="998.4375" y1="1057.9413" y2="1057.9413"/><line style="stroke: #A80036; stroke-width: 2.8125;" x1="998.4375" x2="998.4375" y1="1057.9413" y2="1086.0663"/><polygon fill="#A80036" points="990.9375,1067.3163,998.4375,1086.0663,1005.9375,1067.3163,998.4375,1074.8163" style="stroke: #A80036; stroke-width: 1.875;"/><line style="stroke: #A80036; stroke-width: 2.8125;" x1="998.4375" x2="998.4375" y1="1149.7577" y2="1159.1327"/><line style="stroke: #A80036; stroke-width: 2.8125;" x1="998.4375" x2="327.1875" y1="1159.1327" y2="1159.1327"/><line style="stroke: #A80036; stroke-width: 2.8125;" x1="327.1875" x2="327.1875" y1="1159.1327" y2="1187.2577"/><polygon fill="#A80036" points="319.6875,1168.5077,327.1875,1187.2577,334.6875,1168.5077,327.1875,1176.0077" style="stroke: #A80036; stroke-width: 1.875;"/><line style="stroke: #A80036; stroke-width: 2.8125;" x1="327.1875" x2="327.1875" y1="1250.9491" y2="1260.3241"/><line style="stroke: #A80036; stroke-width: 2.8125;" x1="327.1875" x2="998.4375" y1="1260.3241" y2="1260.3241"/><line style="stroke: #A80036; stroke-width: 2.8125;" x1="998.4375" x2="998.4375" y1="1260.3241" y2="1288.4491"/><polygon fill="#A80036" points="990.9375,1269.6991,998.4375,1288.4491,1005.9375,1269.6991,998.4375,1277.1991" style="stroke: #A80036; stroke-width: 1.875;"/><line style="stroke: #A80036; stroke-width: 2.8125;" x1="327.1875" x2="327.1875" y1="1697.0233" y2="1706.3983"/><line style="stroke: #A80036; stroke-width: 2.8125;" x1="327.1875" x2="998.4375" y1="1706.3983" y2="1706.3983"/><line style="stroke: #A80036; stroke-width: 2.8125;" x1="998.4375" x2="998.4375" y1="1706.3983" y2="1734.5233"/><polygon fill="#A80036" points="990.9375,1715.7733,998.4375,1734.5233,1005.9375,1715.7733,998.4375,1723.2733" style="stroke: #A80036; stroke-width: 1.875;"/><line style="stroke: #A80036; stroke-width: 2.8125;" x1="998.4375" x2="998.4375" y1="1798.2147" y2="1807.5897"/><line style="stroke: #A80036; stroke-width: 2.8125;" x1="998.4375" x2="327.1875" y1="1807.5897" y2="1807.5897"/><line style="stroke: #A80036; stroke-width: 2.8125;" x1="327.1875" x2="327.1875" y1="1807.5897" y2="1835.7147"/><polygon fill="#A80036" points="319.6875,1816.9647,327.1875,1835.7147,334.6875,1816.9647,327.1875,1824.4647" style="stroke: #A80036; stroke-width: 1.875;"/><line style="stroke: #A80036; stroke-width: 2.8125;" x1="327.1875" x2="327.1875" y1="1899.4061" y2="1908.7811"/><line style="stroke: #A80036; stroke-width: 2.8125;" x1="327.1875" x2="998.4375" y1="1908.7811" y2="1908.7811"/><line style="stroke: #A80036; stroke-width: 2.8125;" x1="998.4375" x2="998.4375" y1="1908.7811" y2="1936.9061"/><polygon fill="#A80036" points="990.9375,1918.1561,998.4375,1936.9061,1005.9375,1918.1561,998.4375,1925.6561" style="stroke: #A80036; stroke-width: 1.875;"/><line style="stroke: #A80036; stroke-width: 2.8125;" x1="998.4375" x2="998.4375" y1="2000.5975" y2="2009.9725"/><line style="stroke: #A80036; stroke-width: 2.8125;" x1="998.4375" x2="327.1875" y1="2009.9725" y2="2009.9725"/><line style="stroke: #A80036; stroke-width: 2.8125;" x1="327.1875" x2="327.1875" y1="2009.9725" y2="2038.0975"/><polygon fill="#A80036" points="319.6875,2019.3475,327.1875,2038.0975,334.6875,2019.3475,327.1875,2026.8475" style="stroke: #A80036; stroke-width: 1.875;"/><text fill="#000000" font-family="sans-serif" font-size="26.25" font-weight="bold" lengthAdjust="spacingAndGlyphs" textLength="153.75" x="249.375" y="85.7813">Pelanggan</text><text fill="#000000" font-family="sans-serif" font-size="26.25" font-weight="bold" lengthAdjust="spacingAndGlyphs" textLength="99.375" x="1018.125" y="85.7813">Sistem</text><line style="stroke: #A0AEC0; stroke-width: 3.75;" x1="18.75" x2="18.75" y1="61.4154" y2="2079.3475"/><line style="stroke: #A0AEC0; stroke-width: 3.75;" x1="626.25" x2="626.25" y1="61.4154" y2="2079.3475"/><line style="stroke: #A0AEC0; stroke-width: 3.75;" x1="1518.75" x2="1518.75" y1="61.4154" y2="2079.3475"/><!--MD5=[122ef6e68314f9eb8b875ba708d77230]
@startuml
skinparam dpi 180
skinparam defaultFontName "SansSerif"
skinparam ActivityFontSize 12
skinparam ActivityBorderColor #1A365D
skinparam ActivityBackgroundColor #EBF8FF
skinparam ActivityDiamondBorderColor #2B6CB0
skinparam ActivityDiamondBackgroundColor #FEFCBF
skinparam SwimlaneTitleFontSize 14
skinparam SwimlaneTitleFontStyle bold
skinparam SwimlaneBorderColor #A0AEC0
skinparam SwimlaneWidth 260

title **ACTIVITY DIAGRAM PELANGGAN (SEDERHANA) - GEGARES**

|Pelanggan|
start
:Membuka Website Gegares;

|Sistem|
:Menampilkan Halaman Depan & Katalog;

|Pelanggan|
if (Sudah Login?) then (Belum)
  :Login / Registrasi Akun;
  |Sistem|
  :Validasi Akun & Set Session;
else (Ya)
endif

|Pelanggan|
:Cari / Pilih Jajanan Pasar (Katalog / AI Chatbot);

|Sistem|
:Menampilkan Detail Produk;

|Pelanggan|
:Tambah ke Keranjang & Checkout;

|Sistem|
:Hitung Ongkir (Biteship) & Tampilkan QRIS Pakasir;

|Pelanggan|
:Bayar Pesanan via QRIS Pakasir;

|Sistem|
:Verifikasi Webhook Pakasir & Update Status Paid;
if (Status Pembayaran?) then (Gagal / Expired)
  :Pesanan Dibatalkan;
  stop
else (Berhasil / Paid)
  :Kurangi Stok & Auto-Booking Kurir (Biteship);
endif

|Pelanggan|
:Lacak Pengiriman & Terima Pesanan;

|Sistem|
:Update Status Completed;

|Pelanggan|
:Beri Ulasan Produk (Opsional);

|Sistem|
:Simpan Ulasan Pelanggan;

|Pelanggan|
stop
@enduml

PlantUML version 1.2020.02(Sun Mar 01 18:22:07 CST 2020)
(GPL source distribution)
Java Runtime: OpenJDK Runtime Environment
JVM: OpenJDK 64-Bit Server VM
Java Version: 11.0.31+11-post-1ubuntu1-22.04.2-Ubuntu
Operating System: Linux
Default Encoding: UTF-8
Language: en
Country: US
--></g></svg>