<?xml version="1.0" encoding="UTF-8" standalone="no"?><svg xmlns="http://www.w3.org/2000/svg" xmlns:xlink="http://www.w3.org/1999/xlink" contentScriptType="application/ecmascript" contentStyleType="text/css" height="3637.5px" preserveAspectRatio="none" style="width:3896px;height:3637px;" version="1.1" viewBox="0 0 3896 3637" width="3896.25px" zoomAndPan="magnify"><defs><filter height="300%" id="f1m2l6c3kjxpfk" width="300%" x="-1" y="-1"><feGaussianBlur result="blurOut" stdDeviation="3.75"/><feColorMatrix in="blurOut" result="blurOut2" type="matrix" values="0 0 0 0 0 0 0 0 0 0 0 0 0 0 0 0 0 0 .4 0"/><feOffset dx="7.5" dy="7.5" in="blurOut2" result="blurOut3"/><feBlend in="SourceGraphic" in2="blurOut3" mode="normal"/></filter></defs><g><text fill="#000000" font-family="sans-serif" font-size="33.75" font-weight="bold" lengthAdjust="spacingAndGlyphs" textLength="823.125" x="1535.1563" y="50.0775">ACTIVITY DIAGRAM PELANGGAN - GEGARES</text><ellipse cx="966.5625" cy="120.097" fill="#000000" filter="url(#f1m2l6c3kjxpfk)" rx="18.75" ry="18.75" style="stroke: none; stroke-width: 1.875;"/><rect fill="#EBF8FF" filter="url(#f1m2l6c3kjxpfk)" height="63.6914" rx="23.4375" ry="23.4375" style="stroke: #1A365D; stroke-width: 2.8125;" width="361.875" x="785.625" y="176.347"/><text fill="#000000" font-family="sans-serif" font-size="22.5" lengthAdjust="spacingAndGlyphs" textLength="324.375" x="804.375" y="215.9821">Membuka Halaman Website</text><polygon fill="#FEFCBF" filter="url(#f1m2l6c3kjxpfk)" points="78.75,378.7299,356.25,378.7299,378.75,401.2299,356.25,423.7299,78.75,423.7299,56.25,401.2299,78.75,378.7299" style="stroke: #2B6CB0; stroke-width: 2.8125;"/><text fill="#000000" font-family="sans-serif" font-size="20.625" lengthAdjust="spacingAndGlyphs" textLength="196.875" x="225" y="442.8745">Belum Punya Akun</text><text fill="#000000" font-family="sans-serif" font-size="20.625" lengthAdjust="spacingAndGlyphs" textLength="277.5" x="78.75" y="408.3701">Status Akun / Autentikasi?</text><rect fill="#EBF8FF" filter="url(#f1m2l6c3kjxpfk)" height="63.6914" rx="23.4375" ry="23.4375" style="stroke: #1A365D; stroke-width: 2.8125;" width="290.625" x="72.1875" y="483.187"/><text fill="#000000" font-family="sans-serif" font-size="22.5" lengthAdjust="spacingAndGlyphs" textLength="253.125" x="90.9375" y="522.822">Mengklik Menu Daftar</text><rect fill="#EBF8FF" filter="url(#f1m2l6c3kjxpfk)" height="63.6914" rx="23.4375" ry="23.4375" style="stroke: #1A365D; stroke-width: 2.8125;" width="315" x="60" y="727.6035"/><text fill="#000000" font-family="sans-serif" font-size="22.5" lengthAdjust="spacingAndGlyphs" textLength="277.5" x="78.75" y="767.2385">Mengisi Form Registrasi</text><polygon fill="#FEFCBF" filter="url(#f1m2l6c3kjxpfk)" points="629.0625,378.7299,803.4375,378.7299,825.9375,401.2299,803.4375,423.7299,629.0625,423.7299,606.5625,401.2299,629.0625,378.7299" style="stroke: #2B6CB0; stroke-width: 2.8125;"/><text fill="#000000" font-family="sans-serif" font-size="20.625" lengthAdjust="spacingAndGlyphs" textLength="163.125" x="723.75" y="442.8745">Lupa Password</text><text fill="#000000" font-family="sans-serif" font-size="20.625" lengthAdjust="spacingAndGlyphs" textLength="174.375" x="629.0625" y="408.3701">Lupa Password?</text><text fill="#000000" font-family="sans-serif" font-size="20.625" lengthAdjust="spacingAndGlyphs" textLength="196.875" x="825.9375" y="396.3657">Sudah Punya Akun</text><rect fill="#EBF8FF" filter="url(#f1m2l6c3kjxpfk)" height="63.6914" rx="23.4375" ry="23.4375" style="stroke: #1A365D; stroke-width: 2.8125;" width="260.625" x="585.9375" y="727.6035"/><text fill="#000000" font-family="sans-serif" font-size="22.5" lengthAdjust="spacingAndGlyphs" textLength="223.125" x="604.6875" y="767.2385">Mengisi Email Akun</text><rect fill="#EBF8FF" filter="url(#f1m2l6c3kjxpfk)" height="63.6914" rx="23.4375" ry="23.4375" style="stroke: #1A365D; stroke-width: 2.8125;" width="551.25" x="440.625" y="986.2363"/><text fill="#000000" font-family="sans-serif" font-size="22.5" lengthAdjust="spacingAndGlyphs" textLength="513.75" x="459.375" y="1025.8713">Membuka Link Reset &amp; Form Password Baru</text><path d="M1227.1875,1216.019 L1227.1875,1274.642 L1189.6875,1282.142 L1227.1875,1289.642 L1227.1875,1348.2651 A0,0 0 0 0 1227.1875,1348.2651 L1650.9375,1348.2651 A0,0 0 0 0 1650.9375,1348.2651 L1650.9375,1234.769 L1632.1875,1216.019 L1227.1875,1216.019 A0,0 0 0 0 1227.1875,1216.019 " fill="#FBFB77" filter="url(#f1m2l6c3kjxpfk)" style="stroke: #A80036; stroke-width: 1.875;"/><path d="M1632.1875,1216.019 L1632.1875,1234.769 L1650.9375,1234.769 L1632.1875,1216.019 " fill="#FBFB77" style="stroke: #A80036; stroke-width: 1.875;"/><text fill="#000000" font-family="sans-serif" font-size="24.375" lengthAdjust="spacingAndGlyphs" textLength="305.625" x="1238.4375" y="1248.0194">- Pencarian Typo-Tolerant</text><text fill="#000000" font-family="sans-serif" font-size="24.375" lengthAdjust="spacingAndGlyphs" textLength="181.875" x="1238.4375" y="1276.3934">- Filter Kategori</text><text fill="#000000" font-family="sans-serif" font-size="24.375" lengthAdjust="spacingAndGlyphs" textLength="384.375" x="1238.4375" y="1304.7675">- Chatbot AI (Gemini Grounding)</text><text fill="#000000" font-family="sans-serif" font-size="24.375" lengthAdjust="spacingAndGlyphs" textLength="331.875" x="1238.4375" y="1333.1415">- Snap &amp; Buy (Foto Jajanan)</text><rect fill="#EBF8FF" filter="url(#f1m2l6c3kjxpfk)" height="63.6914" rx="23.4375" ry="23.4375" style="stroke: #1A365D; stroke-width: 2.8125;" width="446.25" x="743.4375" y="1250.2963"/><text fill="#000000" font-family="sans-serif" font-size="22.5" lengthAdjust="spacingAndGlyphs" textLength="408.75" x="762.1875" y="1289.9313">Mengeksplorasi Produk &amp; Interaksi</text><rect fill="#EBF8FF" filter="url(#f1m2l6c3kjxpfk)" height="63.6914" rx="23.4375" ry="23.4375" style="stroke: #1A365D; stroke-width: 2.8125;" width="528.75" x="702.1875" y="1385.7651"/><text fill="#000000" font-family="sans-serif" font-size="22.5" lengthAdjust="spacingAndGlyphs" textLength="491.25" x="720.9375" y="1425.4001">Menambah Produk ke Keranjang / Wishlist</text><rect fill="#EBF8FF" filter="url(#f1m2l6c3kjxpfk)" height="63.6914" rx="23.4375" ry="23.4375" style="stroke: #1A365D; stroke-width: 2.8125;" width="354.375" x="789.375" y="1588.1479"/><text fill="#000000" font-family="sans-serif" font-size="22.5" lengthAdjust="spacingAndGlyphs" textLength="316.875" x="808.125" y="1627.7829">Menekan Tombol Checkout</text><rect fill="#EBF8FF" filter="url(#f1m2l6c3kjxpfk)" height="63.6914" rx="23.4375" ry="23.4375" style="stroke: #1A365D; stroke-width: 2.8125;" width="491.25" x="720.9375" y="1790.5307"/><text fill="#000000" font-family="sans-serif" font-size="22.5" lengthAdjust="spacingAndGlyphs" textLength="453.75" x="739.6875" y="1830.1657">Memilih Alamat Pengiriman &amp; Pilih Kurir</text><rect fill="#EBF8FF" filter="url(#f1m2l6c3kjxpfk)" height="63.6914" rx="23.4375" ry="23.4375" style="stroke: #1A365D; stroke-width: 2.8125;" width="571.875" x="680.625" y="1992.9135"/><text fill="#000000" font-family="sans-serif" font-size="22.5" lengthAdjust="spacingAndGlyphs" textLength="534.375" x="699.375" y="2032.5485">Input Kode Promo (Opsional) &amp; Buat Pesanan</text><rect fill="#EBF8FF" filter="url(#f1m2l6c3kjxpfk)" height="63.6914" rx="23.4375" ry="23.4375" style="stroke: #1A365D; stroke-width: 2.8125;" width="388.125" x="772.5" y="2195.2963"/><text fill="#000000" font-family="sans-serif" font-size="22.5" lengthAdjust="spacingAndGlyphs" textLength="350.625" x="791.25" y="2234.9313">Scan &amp; Bayar via QRIS Pakasir</text><rect fill="#EBF8FF" filter="url(#f1m2l6c3kjxpfk)" height="63.6914" rx="23.4375" ry="23.4375" style="stroke: #1A365D; stroke-width: 2.8125;" width="429.375" x="751.875" y="2765.0034"/><text fill="#000000" font-family="sans-serif" font-size="22.5" lengthAdjust="spacingAndGlyphs" textLength="391.875" x="770.625" y="2804.6384">Memantau Pelacakan Pengiriman</text><rect fill="#EBF8FF" filter="url(#f1m2l6c3kjxpfk)" height="63.6914" rx="23.4375" ry="23.4375" style="stroke: #1A365D; stroke-width: 2.8125;" width="521.25" x="705.9375" y="2967.3862"/><text fill="#000000" font-family="sans-serif" font-size="22.5" lengthAdjust="spacingAndGlyphs" textLength="483.75" x="724.6875" y="3007.0212">Menerima Pesanan &amp; Konfirmasi Diterima</text><rect fill="#EBF8FF" filter="url(#f1m2l6c3kjxpfk)" height="63.6914" rx="23.4375" ry="23.4375" style="stroke: #1A365D; stroke-width: 2.8125;" width="560.625" x="686.25" y="3169.769"/><text fill="#000000" font-family="sans-serif" font-size="22.5" lengthAdjust="spacingAndGlyphs" textLength="523.125" x="705" y="3209.404">Menulis Ulasan Produk (Rating, Teks &amp; Foto)</text><rect fill="#EBF8FF" filter="url(#f1m2l6c3kjxpfk)" height="63.6914" rx="23.4375" ry="23.4375" style="stroke: #1A365D; stroke-width: 2.8125;" width="226.875" x="853.125" y="3372.1518"/><text fill="#000000" font-family="sans-serif" font-size="22.5" lengthAdjust="spacingAndGlyphs" textLength="189.375" x="871.875" y="3411.7868">Mengklik Logout</text><ellipse cx="966.5625" cy="3595.1596" fill="#FFFFFF" filter="url(#f1m2l6c3kjxpfk)" rx="20.625" ry="20.625" style="stroke: #000000; stroke-width: 1.875;"/><ellipse cx="966.5625" cy="3595.1596" fill="#000000" rx="11.25" ry="11.25" style="stroke: #7F7F7F; stroke-width: 1.875;"/><rect fill="#EBF8FF" filter="url(#f1m2l6c3kjxpfk)" height="63.6914" rx="23.4375" ry="23.4375" style="stroke: #1A365D; stroke-width: 2.8125;" width="540" x="2493.75" y="277.5385"/><text fill="#000000" font-family="sans-serif" font-size="22.5" lengthAdjust="spacingAndGlyphs" textLength="502.5" x="2512.5" y="317.1735">Menampilkan Halaman Depan (Homepage)</text><rect fill="#EBF8FF" filter="url(#f1m2l6c3kjxpfk)" height="63.6914" rx="23.4375" ry="23.4375" style="stroke: #1A365D; stroke-width: 2.8125;" width="410.625" x="1718.4375" y="598.287"/><text fill="#000000" font-family="sans-serif" font-size="22.5" lengthAdjust="spacingAndGlyphs" textLength="373.125" x="1737.1875" y="637.9221">Menampilkan Form Pendaftaran</text><rect fill="#EBF8FF" filter="url(#f1m2l6c3kjxpfk)" height="63.6914" rx="23.4375" ry="23.4375" style="stroke: #1A365D; stroke-width: 2.8125;" width="508.125" x="1669.6875" y="856.9199"/><text fill="#000000" font-family="sans-serif" font-size="22.5" lengthAdjust="spacingAndGlyphs" textLength="470.625" x="1688.4375" y="896.5549">Menyimpan Data Akun Baru &amp; Logged In</text><rect fill="#EBF8FF" filter="url(#f1m2l6c3kjxpfk)" height="63.6914" rx="23.4375" ry="23.4375" style="stroke: #1A365D; stroke-width: 2.8125;" width="322.5" x="2352.1875" y="483.187"/><text fill="#000000" font-family="sans-serif" font-size="22.5" lengthAdjust="spacingAndGlyphs" textLength="285" x="2370.9375" y="522.822">Mengklik Lupa Password</text><rect fill="#EBF8FF" filter="url(#f1m2l6c3kjxpfk)" height="63.6914" rx="23.4375" ry="23.4375" style="stroke: #1A365D; stroke-width: 2.8125;" width="440.625" x="2293.125" y="598.287"/><text fill="#000000" font-family="sans-serif" font-size="22.5" lengthAdjust="spacingAndGlyphs" textLength="403.125" x="2311.875" y="637.9221">Menampilkan Form Lupa Password</text><rect fill="#EBF8FF" filter="url(#f1m2l6c3kjxpfk)" height="63.6914" rx="23.4375" ry="23.4375" style="stroke: #1A365D; stroke-width: 2.8125;" width="378.75" x="2324.0625" y="856.9199"/><text fill="#000000" font-family="sans-serif" font-size="22.5" lengthAdjust="spacingAndGlyphs" textLength="341.25" x="2342.8125" y="896.5549">Mengirim Link Reset via Email</text><rect fill="#EBF8FF" filter="url(#f1m2l6c3kjxpfk)" height="63.6914" rx="23.4375" ry="23.4375" style="stroke: #1A365D; stroke-width: 2.8125;" width="633.75" x="2196.5625" y="1096.0776"/><text fill="#000000" font-family="sans-serif" font-size="22.5" lengthAdjust="spacingAndGlyphs" textLength="596.25" x="2215.3125" y="1135.7126">Memperbarui Password Database &amp; Redirect Login</text><rect fill="#EBF8FF" filter="url(#f1m2l6c3kjxpfk)" height="63.6914" rx="23.4375" ry="23.4375" style="stroke: #1A365D; stroke-width: 2.8125;" width="451.875" x="3116.25" y="565.6284"/><text fill="#000000" font-family="sans-serif" font-size="22.5" lengthAdjust="spacingAndGlyphs" textLength="414.375" x="3135" y="605.2634">Mengisi Form Login / Google Sign-In</text><rect fill="#EBF8FF" filter="url(#f1m2l6c3kjxpfk)" height="63.6914" rx="23.4375" ry="23.4375" style="stroke: #1A365D; stroke-width: 2.8125;" width="427.5" x="3128.4375" y="694.9448"/><text fill="#000000" font-family="sans-serif" font-size="22.5" lengthAdjust="spacingAndGlyphs" textLength="390" x="3147.1875" y="734.5798">Validasi Credential / Token OAuth</text><polygon fill="#FEFCBF" filter="url(#f1m2l6c3kjxpfk)" points="3265.3125,824.2612,3419.0625,824.2612,3441.5625,846.7612,3419.0625,869.2612,3265.3125,869.2612,3242.8125,846.7612,3265.3125,824.2612" style="stroke: #2B6CB0; stroke-width: 2.8125;"/><text fill="#000000" font-family="sans-serif" font-size="20.625" lengthAdjust="spacingAndGlyphs" textLength="153.75" x="3265.3125" y="853.9014">Hasil Validasi?</text><text fill="#000000" font-family="sans-serif" font-size="20.625" lengthAdjust="spacingAndGlyphs" textLength="144.375" x="3098.4375" y="841.897">Gagal / Salah</text><text fill="#000000" font-family="sans-serif" font-size="20.625" lengthAdjust="spacingAndGlyphs" textLength="88.125" x="3441.5625" y="841.897">Berhasil</text><rect fill="#EBF8FF" filter="url(#f1m2l6c3kjxpfk)" height="63.6914" rx="23.4375" ry="23.4375" style="stroke: #1A365D; stroke-width: 2.8125;" width="406.875" x="2886.5625" y="888.0112"/><text fill="#000000" font-family="sans-serif" font-size="22.5" lengthAdjust="spacingAndGlyphs" textLength="369.375" x="2905.3125" y="927.6462">Menampilkan Pesan Error Login</text><ellipse cx="3090" cy="1037.9526" fill="#FFFFFF" filter="url(#f1m2l6c3kjxpfk)" rx="20.625" ry="20.625" style="stroke: #000000; stroke-width: 1.875;"/><ellipse cx="3090" cy="1037.9526" fill="#000000" rx="11.25" ry="11.25" style="stroke: #7F7F7F; stroke-width: 1.875;"/><rect fill="#EBF8FF" filter="url(#f1m2l6c3kjxpfk)" height="63.6914" rx="23.4375" ry="23.4375" style="stroke: #1A365D; stroke-width: 2.8125;" width="526.875" x="3330.9375" y="888.0112"/><text fill="#000000" font-family="sans-serif" font-size="22.5" lengthAdjust="spacingAndGlyphs" textLength="489.375" x="3349.6875" y="927.6462">Menampilkan Halaman Depan (Logged In)</text><rect fill="#EBF8FF" filter="url(#f1m2l6c3kjxpfk)" height="63.6914" rx="23.4375" ry="23.4375" style="stroke: #1A365D; stroke-width: 2.8125;" width="558.75" x="2484.375" y="1486.9565"/><text fill="#000000" font-family="sans-serif" font-size="22.5" lengthAdjust="spacingAndGlyphs" textLength="521.25" x="2503.125" y="1526.5915">Update State Keranjang &amp; Wishlist (Livewire)</text><rect fill="#EBF8FF" filter="url(#f1m2l6c3kjxpfk)" height="63.6914" rx="23.4375" ry="23.4375" style="stroke: #1A365D; stroke-width: 2.8125;" width="600" x="2463.75" y="1689.3393"/><text fill="#000000" font-family="sans-serif" font-size="22.5" lengthAdjust="spacingAndGlyphs" textLength="562.5" x="2482.5" y="1728.9743">Validasi Telepon &amp; Menampilkan Form Checkout</text><rect fill="#EBF8FF" filter="url(#f1m2l6c3kjxpfk)" height="63.6914" rx="23.4375" ry="23.4375" style="stroke: #1A365D; stroke-width: 2.8125;" width="521.25" x="2503.125" y="1891.7221"/><text fill="#000000" font-family="sans-serif" font-size="22.5" lengthAdjust="spacingAndGlyphs" textLength="483.75" x="2521.875" y="1931.3571">Kalkulasi Ongkir Real-time via Biteship API</text><rect fill="#EBF8FF" filter="url(#f1m2l6c3kjxpfk)" height="63.6914" rx="23.4375" ry="23.4375" style="stroke: #1A365D; stroke-width: 2.8125;" width="570" x="2478.75" y="2094.1049"/><text fill="#000000" font-family="sans-serif" font-size="22.5" lengthAdjust="spacingAndGlyphs" textLength="532.5" x="2497.5" y="2133.7399">Generate Hosted Payment Link / QRIS Pakasir</text><rect fill="#EBF8FF" filter="url(#f1m2l6c3kjxpfk)" height="63.6914" rx="23.4375" ry="23.4375" style="stroke: #1A365D; stroke-width: 2.8125;" width="532.5" x="2497.5" y="2296.4877"/><text fill="#000000" font-family="sans-serif" font-size="22.5" lengthAdjust="spacingAndGlyphs" textLength="495" x="2516.25" y="2336.1227">Webhook Pakasir + Verifikasi Otoritatif API</text><polygon fill="#FEFCBF" filter="url(#f1m2l6c3kjxpfk)" points="2653.125,2397.6791,2874.375,2397.6791,2896.875,2420.1791,2874.375,2442.6791,2653.125,2442.6791,2630.625,2420.1791,2653.125,2397.6791" style="stroke: #2B6CB0; stroke-width: 2.8125;"/><text fill="#000000" font-family="sans-serif" font-size="20.625" lengthAdjust="spacingAndGlyphs" textLength="221.25" x="2653.125" y="2427.3193">Status Pembayaran?</text><text fill="#000000" font-family="sans-serif" font-size="20.625" lengthAdjust="spacingAndGlyphs" textLength="238.125" x="2392.5" y="2415.3149">Belum Bayar / Expired</text><text fill="#000000" font-family="sans-serif" font-size="20.625" lengthAdjust="spacingAndGlyphs" textLength="131.25" x="2896.875" y="2415.3149">Lunas / Paid</text><rect fill="#EBF8FF" filter="url(#f1m2l6c3kjxpfk)" height="63.6914" rx="23.4375" ry="23.4375" style="stroke: #1A365D; stroke-width: 2.8125;" width="427.5" x="2287.5" y="2461.4291"/><text fill="#000000" font-family="sans-serif" font-size="22.5" lengthAdjust="spacingAndGlyphs" textLength="390" x="2306.25" y="2501.0641">Status Order Pending / Cancelled</text><ellipse cx="2501.25" cy="2583.2455" fill="#FFFFFF" filter="url(#f1m2l6c3kjxpfk)" rx="20.625" ry="20.625" style="stroke: #000000; stroke-width: 1.875;"/><ellipse cx="2501.25" cy="2583.2455" fill="#000000" rx="11.25" ry="11.25" style="stroke: #7F7F7F; stroke-width: 1.875;"/><rect fill="#EBF8FF" filter="url(#f1m2l6c3kjxpfk)" height="63.6914" rx="23.4375" ry="23.4375" style="stroke: #1A365D; stroke-width: 2.8125;" width="365.625" x="2843.4375" y="2461.4291"/><text fill="#000000" font-family="sans-serif" font-size="22.5" lengthAdjust="spacingAndGlyphs" textLength="328.125" x="2862.1875" y="2501.0641">Update Order Status = Paid</text><rect fill="#EBF8FF" filter="url(#f1m2l6c3kjxpfk)" height="63.6914" rx="23.4375" ry="23.4375" style="stroke: #1A365D; stroke-width: 2.8125;" width="547.5" x="2752.5" y="2562.6205"/><text fill="#000000" font-family="sans-serif" font-size="22.5" lengthAdjust="spacingAndGlyphs" textLength="510" x="2771.25" y="2602.2556">Pengurangan Stok Atomik (DB Transaction)</text><rect fill="#EBF8FF" filter="url(#f1m2l6c3kjxpfk)" height="63.6914" rx="23.4375" ry="23.4375" style="stroke: #1A365D; stroke-width: 2.8125;" width="436.875" x="2807.8125" y="2663.812"/><text fill="#000000" font-family="sans-serif" font-size="22.5" lengthAdjust="spacingAndGlyphs" textLength="399.375" x="2826.5625" y="2703.447">Auto Booking Kurir via Biteship API</text><rect fill="#EBF8FF" filter="url(#f1m2l6c3kjxpfk)" height="63.6914" rx="23.4375" ry="23.4375" style="stroke: #1A365D; stroke-width: 2.8125;" width="682.5" x="2422.5" y="2866.1948"/><text fill="#000000" font-family="sans-serif" font-size="22.5" lengthAdjust="spacingAndGlyphs" textLength="645" x="2441.25" y="2905.8298">Menampilkan Status Resi &amp; Biteship Tracking Real-time</text><rect fill="#EBF8FF" filter="url(#f1m2l6c3kjxpfk)" height="63.6914" rx="23.4375" ry="23.4375" style="stroke: #1A365D; stroke-width: 2.8125;" width="440.625" x="2543.4375" y="3068.5776"/><text fill="#000000" font-family="sans-serif" font-size="22.5" lengthAdjust="spacingAndGlyphs" textLength="403.125" x="2562.1875" y="3108.2126">Update Status Order = Completed</text><rect fill="#EBF8FF" filter="url(#f1m2l6c3kjxpfk)" height="63.6914" rx="23.4375" ry="23.4375" style="stroke: #1A365D; stroke-width: 2.8125;" width="600" x="2463.75" y="3270.9604"/><text fill="#000000" font-family="sans-serif" font-size="22.5" lengthAdjust="spacingAndGlyphs" textLength="562.5" x="2482.5" y="3310.5954">Menyimpan Ulasan (Menunggu Moderasi Admin)</text><rect fill="#EBF8FF" filter="url(#f1m2l6c3kjxpfk)" height="63.6914" rx="23.4375" ry="23.4375" style="stroke: #1A365D; stroke-width: 2.8125;" width="435" x="2546.25" y="3473.3432"/><text fill="#000000" font-family="sans-serif" font-size="22.5" lengthAdjust="spacingAndGlyphs" textLength="397.5" x="2565" y="3512.9782">Destroy Session &amp; Redirect Guest</text><line style="stroke: #A80036; stroke-width: 2.8125;" x1="966.5625" x2="966.5625" y1="138.847" y2="176.347"/><polygon fill="#A80036" points="959.0625,157.597,966.5625,176.347,974.0625,157.597,966.5625,165.097" style="stroke: #A80036; stroke-width: 1.875;"/><line style="stroke: #A80036; stroke-width: 2.8125;" x1="217.5" x2="217.5" y1="423.7299" y2="483.187"/><polygon fill="#A80036" points="210,464.437,217.5,483.187,225,464.437,217.5,471.937" style="stroke: #A80036; stroke-width: 1.875;"/><line style="stroke: #A80036; stroke-width: 2.8125;" x1="378.75" x2="606.5625" y1="401.2299" y2="401.2299"/><polygon fill="#A80036" points="587.8125,393.7299,606.5625,401.2299,587.8125,408.7299,595.3125,401.2299" style="stroke: #A80036; stroke-width: 1.875;"/><line style="stroke: #A80036; stroke-width: 2.8125;" x1="2763.75" x2="2763.75" y1="341.2299" y2="350.6049"/><line style="stroke: #A80036; stroke-width: 2.8125;" x1="2763.75" x2="217.5" y1="350.6049" y2="350.6049"/><line style="stroke: #A80036; stroke-width: 2.8125;" x1="217.5" x2="217.5" y1="350.6049" y2="378.7299"/><polygon fill="#A80036" points="210,359.9799,217.5,378.7299,225,359.9799,217.5,367.4799" style="stroke: #A80036; stroke-width: 1.875;"/><line style="stroke: #A80036; stroke-width: 2.8125;" x1="966.5625" x2="966.5625" y1="1197.269" y2="1250.2963"/><polygon fill="#A80036" points="959.0625,1231.5463,966.5625,1250.2963,974.0625,1231.5463,966.5625,1239.0463" style="stroke: #A80036; stroke-width: 1.875;"/><line style="stroke: #A80036; stroke-width: 2.8125;" x1="966.5625" x2="966.5625" y1="1313.9877" y2="1385.7651"/><polygon fill="#A80036" points="959.0625,1367.0151,966.5625,1385.7651,974.0625,1367.0151,966.5625,1374.5151" style="stroke: #A80036; stroke-width: 1.875;"/><line style="stroke: #A80036; stroke-width: 2.8125;" x1="2513.4375" x2="2513.4375" y1="546.8784" y2="598.287"/><polygon fill="#A80036" points="2505.9375,579.537,2513.4375,598.287,2520.9375,579.537,2513.4375,587.037" style="stroke: #A80036; stroke-width: 1.875;"/><line style="stroke: #A80036; stroke-width: 2.8125;" x1="3342.1875" x2="3342.1875" y1="629.3198" y2="694.9448"/><polygon fill="#A80036" points="3334.6875,676.1948,3342.1875,694.9448,3349.6875,676.1948,3342.1875,683.6948" style="stroke: #A80036; stroke-width: 1.875;"/><line style="stroke: #A80036; stroke-width: 2.8125;" x1="3090" x2="3090" y1="951.7026" y2="1017.3276"/><polygon fill="#A80036" points="3082.5,998.5776,3090,1017.3276,3097.5,998.5776,3090,1006.0776" style="stroke: #A80036; stroke-width: 1.875;"/><line style="stroke: #A80036; stroke-width: 2.8125;" x1="3242.8125" x2="3090" y1="846.7612" y2="846.7612"/><line style="stroke: #A80036; stroke-width: 2.8125;" x1="3090" x2="3090" y1="846.7612" y2="888.0112"/><polygon fill="#A80036" points="3082.5,869.2612,3090,888.0112,3097.5,869.2612,3090,876.7612" style="stroke: #A80036; stroke-width: 1.875;"/><line style="stroke: #A80036; stroke-width: 2.8125;" x1="3441.5625" x2="3594.375" y1="846.7612" y2="846.7612"/><line style="stroke: #A80036; stroke-width: 2.8125;" x1="3594.375" x2="3594.375" y1="846.7612" y2="888.0112"/><polygon fill="#A80036" points="3586.875,869.2612,3594.375,888.0112,3601.875,869.2612,3594.375,876.7612" style="stroke: #A80036; stroke-width: 1.875;"/><line style="stroke: #A80036; stroke-width: 2.8125;" x1="3594.375" x2="3594.375" y1="951.7026" y2="1067.9526"/><line style="stroke: #A80036; stroke-width: 2.8125;" x1="3594.375" x2="3342.1875" y1="1067.9526" y2="1067.9526"/><line style="stroke: #A80036; stroke-width: 2.8125;" x1="3342.1875" x2="3342.1875" y1="1067.9526" y2="1197.269"/><polygon fill="#A80036" points="3334.6875,1178.519,3342.1875,1197.269,3349.6875,1178.519,3342.1875,1186.019" style="stroke: #A80036; stroke-width: 1.875;"/><line style="stroke: #A80036; stroke-width: 2.8125;" x1="3342.1875" x2="3342.1875" y1="758.6362" y2="824.2612"/><polygon fill="#A80036" points="3334.6875,805.5112,3342.1875,824.2612,3349.6875,805.5112,3342.1875,813.0112" style="stroke: #A80036; stroke-width: 1.875;"/><line style="stroke: #A80036; stroke-width: 2.8125;" x1="1923.75" x2="1923.75" y1="920.6113" y2="1197.269"/><polygon fill="#A80036" points="1916.25,1178.519,1923.75,1197.269,1931.25,1178.519,1923.75,1186.019" style="stroke: #A80036; stroke-width: 1.875;"/><line style="stroke: #A80036; stroke-width: 2.8125;" x1="2513.4375" x2="2513.4375" y1="1159.769" y2="1197.269"/><polygon fill="#A80036" points="2505.9375,1178.519,2513.4375,1197.269,2520.9375,1178.519,2513.4375,1186.019" style="stroke: #A80036; stroke-width: 1.875;"/><line style="stroke: #A80036; stroke-width: 2.8125;" x1="1923.75" x2="3342.1875" y1="1197.269" y2="1197.269"/><line style="stroke: #A80036; stroke-width: 2.8125;" x1="2501.25" x2="2501.25" y1="2525.1205" y2="2562.6205"/><polygon fill="#A80036" points="2493.75,2543.8705,2501.25,2562.6205,2508.75,2543.8705,2501.25,2551.3705" style="stroke: #A80036; stroke-width: 1.875;"/><line style="stroke: #A80036; stroke-width: 2.8125;" x1="3026.25" x2="3026.25" y1="2525.1205" y2="2562.6205"/><polygon fill="#A80036" points="3018.75,2543.8705,3026.25,2562.6205,3033.75,2543.8705,3026.25,2551.3705" style="stroke: #A80036; stroke-width: 1.875;"/><line style="stroke: #A80036; stroke-width: 2.8125;" x1="3026.25" x2="3026.25" y1="2626.312" y2="2663.812"/><polygon fill="#A80036" points="3018.75,2645.062,3026.25,2663.812,3033.75,2645.062,3026.25,2652.562" style="stroke: #A80036; stroke-width: 1.875;"/><line style="stroke: #A80036; stroke-width: 2.8125;" x1="2630.625" x2="2501.25" y1="2420.1791" y2="2420.1791"/><line style="stroke: #A80036; stroke-width: 2.8125;" x1="2501.25" x2="2501.25" y1="2420.1791" y2="2461.4291"/><polygon fill="#A80036" points="2493.75,2442.6791,2501.25,2461.4291,2508.75,2442.6791,2501.25,2450.1791" style="stroke: #A80036; stroke-width: 1.875;"/><line style="stroke: #A80036; stroke-width: 2.8125;" x1="2896.875" x2="3026.25" y1="2420.1791" y2="2420.1791"/><line style="stroke: #A80036; stroke-width: 2.8125;" x1="3026.25" x2="3026.25" y1="2420.1791" y2="2461.4291"/><polygon fill="#A80036" points="3018.75,2442.6791,3026.25,2461.4291,3033.75,2442.6791,3026.25,2450.1791" style="stroke: #A80036; stroke-width: 1.875;"/><line style="stroke: #A80036; stroke-width: 2.8125;" x1="3026.25" x2="3026.25" y1="2727.5034" y2="2736.8784"/><line style="stroke: #A80036; stroke-width: 2.8125;" x1="3026.25" x2="966.5625" y1="2736.8784" y2="2736.8784"/><line style="stroke: #A80036; stroke-width: 2.8125;" x1="966.5625" x2="966.5625" y1="2736.8784" y2="2765.0034"/><polygon fill="#A80036" points="959.0625,2746.2534,966.5625,2765.0034,974.0625,2746.2534,966.5625,2753.7534" style="stroke: #A80036; stroke-width: 1.875;"/><line style="stroke: #A80036; stroke-width: 2.8125;" x1="2763.75" x2="2763.75" y1="2360.1791" y2="2397.6791"/><polygon fill="#A80036" points="2756.25,2378.9291,2763.75,2397.6791,2771.25,2378.9291,2763.75,2386.4291" style="stroke: #A80036; stroke-width: 1.875;"/><line style="stroke: #A80036; stroke-width: 2.8125;" x1="966.5625" x2="966.5625" y1="240.0385" y2="249.4135"/><line style="stroke: #A80036; stroke-width: 2.8125;" x1="966.5625" x2="2763.75" y1="249.4135" y2="249.4135"/><line style="stroke: #A80036; stroke-width: 2.8125;" x1="2763.75" x2="2763.75" y1="249.4135" y2="277.5385"/><polygon fill="#A80036" points="2756.25,258.7885,2763.75,277.5385,2771.25,258.7885,2763.75,266.2885" style="stroke: #A80036; stroke-width: 1.875;"/><line style="stroke: #A80036; stroke-width: 2.8125;" x1="217.5" x2="217.5" y1="546.8784" y2="565.4745"/><line style="stroke: #A80036; stroke-width: 2.8125;" x1="217.5" x2="1923.75" y1="565.4745" y2="565.4745"/><line style="stroke: #A80036; stroke-width: 2.8125;" x1="1923.75" x2="1923.75" y1="565.4745" y2="598.287"/><polygon fill="#A80036" points="1916.25,579.537,1923.75,598.287,1931.25,579.537,1923.75,587.037" style="stroke: #A80036; stroke-width: 1.875;"/><line style="stroke: #A80036; stroke-width: 2.8125;" x1="1923.75" x2="1923.75" y1="661.9785" y2="694.791"/><line style="stroke: #A80036; stroke-width: 2.8125;" x1="1923.75" x2="217.5" y1="694.791" y2="694.791"/><line style="stroke: #A80036; stroke-width: 2.8125;" x1="217.5" x2="217.5" y1="694.791" y2="727.6035"/><polygon fill="#A80036" points="210,708.8535,217.5,727.6035,225,708.8535,217.5,716.3535" style="stroke: #A80036; stroke-width: 1.875;"/><line style="stroke: #A80036; stroke-width: 2.8125;" x1="217.5" x2="217.5" y1="791.2949" y2="824.1074"/><line style="stroke: #A80036; stroke-width: 2.8125;" x1="217.5" x2="1923.75" y1="824.1074" y2="824.1074"/><line style="stroke: #A80036; stroke-width: 2.8125;" x1="1923.75" x2="1923.75" y1="824.1074" y2="856.9199"/><polygon fill="#A80036" points="1916.25,838.1699,1923.75,856.9199,1931.25,838.1699,1923.75,845.6699" style="stroke: #A80036; stroke-width: 1.875;"/><line style="stroke: #A80036; stroke-width: 2.8125;" x1="2513.4375" x2="2513.4375" y1="661.9785" y2="694.791"/><line style="stroke: #A80036; stroke-width: 2.8125;" x1="2513.4375" x2="716.25" y1="694.791" y2="694.791"/><line style="stroke: #A80036; stroke-width: 2.8125;" x1="716.25" x2="716.25" y1="694.791" y2="727.6035"/><polygon fill="#A80036" points="708.75,708.8535,716.25,727.6035,723.75,708.8535,716.25,716.3535" style="stroke: #A80036; stroke-width: 1.875;"/><line style="stroke: #A80036; stroke-width: 2.8125;" x1="716.25" x2="716.25" y1="791.2949" y2="824.1074"/><line style="stroke: #A80036; stroke-width: 2.8125;" x1="716.25" x2="2513.4375" y1="824.1074" y2="824.1074"/><line style="stroke: #A80036; stroke-width: 2.8125;" x1="2513.4375" x2="2513.4375" y1="824.1074" y2="856.9199"/><polygon fill="#A80036" points="2505.9375,838.1699,2513.4375,856.9199,2520.9375,838.1699,2513.4375,845.6699" style="stroke: #A80036; stroke-width: 1.875;"/><line style="stroke: #A80036; stroke-width: 2.8125;" x1="2513.4375" x2="2513.4375" y1="920.6113" y2="953.4238"/><line style="stroke: #A80036; stroke-width: 2.8125;" x1="2513.4375" x2="716.25" y1="953.4238" y2="953.4238"/><line style="stroke: #A80036; stroke-width: 2.8125;" x1="716.25" x2="716.25" y1="953.4238" y2="986.2363"/><polygon fill="#A80036" points="708.75,967.4863,716.25,986.2363,723.75,967.4863,716.25,974.9863" style="stroke: #A80036; stroke-width: 1.875;"/><line style="stroke: #A80036; stroke-width: 2.8125;" x1="716.25" x2="716.25" y1="1049.9277" y2="1067.9526"/><line style="stroke: #A80036; stroke-width: 2.8125;" x1="716.25" x2="2513.4375" y1="1067.9526" y2="1067.9526"/><line style="stroke: #A80036; stroke-width: 2.8125;" x1="2513.4375" x2="2513.4375" y1="1067.9526" y2="1096.0776"/><polygon fill="#A80036" points="2505.9375,1077.3276,2513.4375,1096.0776,2520.9375,1077.3276,2513.4375,1084.8276" style="stroke: #A80036; stroke-width: 1.875;"/><line style="stroke: #A80036; stroke-width: 2.8125;" x1="716.25" x2="716.25" y1="423.7299" y2="431.2299"/><line style="stroke: #A80036; stroke-width: 2.8125;" x1="716.25" x2="2513.4375" y1="431.2299" y2="431.2299"/><line style="stroke: #A80036; stroke-width: 2.8125;" x1="2513.4375" x2="2513.4375" y1="431.2299" y2="483.187"/><polygon fill="#A80036" points="2505.9375,464.437,2513.4375,483.187,2520.9375,464.437,2513.4375,471.937" style="stroke: #A80036; stroke-width: 1.875;"/><line style="stroke: #A80036; stroke-width: 2.8125;" x1="966.5625" x2="966.5625" y1="1449.4565" y2="1458.8315"/><line style="stroke: #A80036; stroke-width: 2.8125;" x1="966.5625" x2="2763.75" y1="1458.8315" y2="1458.8315"/><line style="stroke: #A80036; stroke-width: 2.8125;" x1="2763.75" x2="2763.75" y1="1458.8315" y2="1486.9565"/><polygon fill="#A80036" points="2756.25,1468.2065,2763.75,1486.9565,2771.25,1468.2065,2763.75,1475.7065" style="stroke: #A80036; stroke-width: 1.875;"/><line style="stroke: #A80036; stroke-width: 2.8125;" x1="2763.75" x2="2763.75" y1="1550.6479" y2="1560.0229"/><line style="stroke: #A80036; stroke-width: 2.8125;" x1="2763.75" x2="966.5625" y1="1560.0229" y2="1560.0229"/><line style="stroke: #A80036; stroke-width: 2.8125;" x1="966.5625" x2="966.5625" y1="1560.0229" y2="1588.1479"/><polygon fill="#A80036" points="959.0625,1569.3979,966.5625,1588.1479,974.0625,1569.3979,966.5625,1576.8979" style="stroke: #A80036; stroke-width: 1.875;"/><line style="stroke: #A80036; stroke-width: 2.8125;" x1="966.5625" x2="966.5625" y1="1651.8393" y2="1661.2143"/><line style="stroke: #A80036; stroke-width: 2.8125;" x1="966.5625" x2="2763.75" y1="1661.2143" y2="1661.2143"/><line style="stroke: #A80036; stroke-width: 2.8125;" x1="2763.75" x2="2763.75" y1="1661.2143" y2="1689.3393"/><polygon fill="#A80036" points="2756.25,1670.5893,2763.75,1689.3393,2771.25,1670.5893,2763.75,1678.0893" style="stroke: #A80036; stroke-width: 1.875;"/><line style="stroke: #A80036; stroke-width: 2.8125;" x1="2763.75" x2="2763.75" y1="1753.0307" y2="1762.4057"/><line style="stroke: #A80036; stroke-width: 2.8125;" x1="2763.75" x2="966.5625" y1="1762.4057" y2="1762.4057"/><line style="stroke: #A80036; stroke-width: 2.8125;" x1="966.5625" x2="966.5625" y1="1762.4057" y2="1790.5307"/><polygon fill="#A80036" points="959.0625,1771.7807,966.5625,1790.5307,974.0625,1771.7807,966.5625,1779.2807" style="stroke: #A80036; stroke-width: 1.875;"/><line style="stroke: #A80036; stroke-width: 2.8125;" x1="966.5625" x2="966.5625" y1="1854.2221" y2="1863.5971"/><line style="stroke: #A80036; stroke-width: 2.8125;" x1="966.5625" x2="2763.75" y1="1863.5971" y2="1863.5971"/><line style="stroke: #A80036; stroke-width: 2.8125;" x1="2763.75" x2="2763.75" y1="1863.5971" y2="1891.7221"/><polygon fill="#A80036" points="2756.25,1872.9721,2763.75,1891.7221,2771.25,1872.9721,2763.75,1880.4721" style="stroke: #A80036; stroke-width: 1.875;"/><line style="stroke: #A80036; stroke-width: 2.8125;" x1="2763.75" x2="2763.75" y1="1955.4135" y2="1964.7885"/><line style="stroke: #A80036; stroke-width: 2.8125;" x1="2763.75" x2="966.5625" y1="1964.7885" y2="1964.7885"/><line style="stroke: #A80036; stroke-width: 2.8125;" x1="966.5625" x2="966.5625" y1="1964.7885" y2="1992.9135"/><polygon fill="#A80036" points="959.0625,1974.1635,966.5625,1992.9135,974.0625,1974.1635,966.5625,1981.6635" style="stroke: #A80036; stroke-width: 1.875;"/><line style="stroke: #A80036; stroke-width: 2.8125;" x1="966.5625" x2="966.5625" y1="2056.6049" y2="2065.9799"/><line style="stroke: #A80036; stroke-width: 2.8125;" x1="966.5625" x2="2763.75" y1="2065.9799" y2="2065.9799"/><line style="stroke: #A80036; stroke-width: 2.8125;" x1="2763.75" x2="2763.75" y1="2065.9799" y2="2094.1049"/><polygon fill="#A80036" points="2756.25,2075.3549,2763.75,2094.1049,2771.25,2075.3549,2763.75,2082.8549" style="stroke: #A80036; stroke-width: 1.875;"/><line style="stroke: #A80036; stroke-width: 2.8125;" x1="2763.75" x2="2763.75" y1="2157.7963" y2="2167.1713"/><line style="stroke: #A80036; stroke-width: 2.8125;" x1="2763.75" x2="966.5625" y1="2167.1713" y2="2167.1713"/><line style="stroke: #A80036; stroke-width: 2.8125;" x1="966.5625" x2="966.5625" y1="2167.1713" y2="2195.2963"/><polygon fill="#A80036" points="959.0625,2176.5463,966.5625,2195.2963,974.0625,2176.5463,966.5625,2184.0463" style="stroke: #A80036; stroke-width: 1.875;"/><line style="stroke: #A80036; stroke-width: 2.8125;" x1="966.5625" x2="966.5625" y1="2258.9877" y2="2268.3627"/><line style="stroke: #A80036; stroke-width: 2.8125;" x1="966.5625" x2="2763.75" y1="2268.3627" y2="2268.3627"/><line style="stroke: #A80036; stroke-width: 2.8125;" x1="2763.75" x2="2763.75" y1="2268.3627" y2="2296.4877"/><polygon fill="#A80036" points="2756.25,2277.7377,2763.75,2296.4877,2771.25,2277.7377,2763.75,2285.2377" style="stroke: #A80036; stroke-width: 1.875;"/><line style="stroke: #A80036; stroke-width: 2.8125;" x1="966.5625" x2="966.5625" y1="2828.6948" y2="2838.0698"/><line style="stroke: #A80036; stroke-width: 2.8125;" x1="966.5625" x2="2763.75" y1="2838.0698" y2="2838.0698"/><line style="stroke: #A80036; stroke-width: 2.8125;" x1="2763.75" x2="2763.75" y1="2838.0698" y2="2866.1948"/><polygon fill="#A80036" points="2756.25,2847.4448,2763.75,2866.1948,2771.25,2847.4448,2763.75,2854.9448" style="stroke: #A80036; stroke-width: 1.875;"/><line style="stroke: #A80036; stroke-width: 2.8125;" x1="2763.75" x2="2763.75" y1="2929.8862" y2="2939.2612"/><line style="stroke: #A80036; stroke-width: 2.8125;" x1="2763.75" x2="966.5625" y1="2939.2612" y2="2939.2612"/><line style="stroke: #A80036; stroke-width: 2.8125;" x1="966.5625" x2="966.5625" y1="2939.2612" y2="2967.3862"/><polygon fill="#A80036" points="959.0625,2948.6362,966.5625,2967.3862,974.0625,2948.6362,966.5625,2956.1362" style="stroke: #A80036; stroke-width: 1.875;"/><line style="stroke: #A80036; stroke-width: 2.8125;" x1="966.5625" x2="966.5625" y1="3031.0776" y2="3040.4526"/><line style="stroke: #A80036; stroke-width: 2.8125;" x1="966.5625" x2="2763.75" y1="3040.4526" y2="3040.4526"/><line style="stroke: #A80036; stroke-width: 2.8125;" x1="2763.75" x2="2763.75" y1="3040.4526" y2="3068.5776"/><polygon fill="#A80036" points="2756.25,3049.8276,2763.75,3068.5776,2771.25,3049.8276,2763.75,3057.3276" style="stroke: #A80036; stroke-width: 1.875;"/><line style="stroke: #A80036; stroke-width: 2.8125;" x1="2763.75" x2="2763.75" y1="3132.269" y2="3141.644"/><line style="stroke: #A80036; stroke-width: 2.8125;" x1="2763.75" x2="966.5625" y1="3141.644" y2="3141.644"/><line style="stroke: #A80036; stroke-width: 2.8125;" x1="966.5625" x2="966.5625" y1="3141.644" y2="3169.769"/><polygon fill="#A80036" points="959.0625,3151.019,966.5625,3169.769,974.0625,3151.019,966.5625,3158.519" style="stroke: #A80036; stroke-width: 1.875;"/><line style="stroke: #A80036; stroke-width: 2.8125;" x1="966.5625" x2="966.5625" y1="3233.4604" y2="3242.8354"/><line style="stroke: #A80036; stroke-width: 2.8125;" x1="966.5625" x2="2763.75" y1="3242.8354" y2="3242.8354"/><line style="stroke: #A80036; stroke-width: 2.8125;" x1="2763.75" x2="2763.75" y1="3242.8354" y2="3270.9604"/><polygon fill="#A80036" points="2756.25,3252.2104,2763.75,3270.9604,2771.25,3252.2104,2763.75,3259.7104" style="stroke: #A80036; stroke-width: 1.875;"/><line style="stroke: #A80036; stroke-width: 2.8125;" x1="2763.75" x2="2763.75" y1="3334.6518" y2="3344.0268"/><line style="stroke: #A80036; stroke-width: 2.8125;" x1="2763.75" x2="966.5625" y1="3344.0268" y2="3344.0268"/><line style="stroke: #A80036; stroke-width: 2.8125;" x1="966.5625" x2="966.5625" y1="3344.0268" y2="3372.1518"/><polygon fill="#A80036" points="959.0625,3353.4018,966.5625,3372.1518,974.0625,3353.4018,966.5625,3360.9018" style="stroke: #A80036; stroke-width: 1.875;"/><line style="stroke: #A80036; stroke-width: 2.8125;" x1="966.5625" x2="966.5625" y1="3435.8432" y2="3445.2182"/><line style="stroke: #A80036; stroke-width: 2.8125;" x1="966.5625" x2="2763.75" y1="3445.2182" y2="3445.2182"/><line style="stroke: #A80036; stroke-width: 2.8125;" x1="2763.75" x2="2763.75" y1="3445.2182" y2="3473.3432"/><polygon fill="#A80036" points="2756.25,3454.5932,2763.75,3473.3432,2771.25,3454.5932,2763.75,3462.0932" style="stroke: #A80036; stroke-width: 1.875;"/><line style="stroke: #A80036; stroke-width: 2.8125;" x1="2763.75" x2="2763.75" y1="3537.0346" y2="3546.4096"/><line style="stroke: #A80036; stroke-width: 2.8125;" x1="2763.75" x2="966.5625" y1="3546.4096" y2="3546.4096"/><line style="stroke: #A80036; stroke-width: 2.8125;" x1="966.5625" x2="966.5625" y1="3546.4096" y2="3574.5346"/><polygon fill="#A80036" points="959.0625,3555.7846,966.5625,3574.5346,974.0625,3555.7846,966.5625,3563.2846" style="stroke: #A80036; stroke-width: 1.875;"/><text fill="#000000" font-family="sans-serif" font-size="26.25" font-weight="bold" lengthAdjust="spacingAndGlyphs" textLength="153.75" x="712.5" y="85.7813">Pelanggan</text><text fill="#000000" font-family="sans-serif" font-size="26.25" font-weight="bold" lengthAdjust="spacingAndGlyphs" textLength="99.375" x="2703.75" y="85.7813">Sistem</text><line style="stroke: #A0AEC0; stroke-width: 3.75;" x1="18.75" x2="18.75" y1="61.4154" y2="3615.7846"/><line style="stroke: #A0AEC0; stroke-width: 3.75;" x1="1660.3125" x2="1660.3125" y1="61.4154" y2="3615.7846"/><line style="stroke: #A0AEC0; stroke-width: 3.75;" x1="3874.6875" x2="3874.6875" y1="61.4154" y2="3615.7846"/><!--MD5=[4db44968105bc1a56b94cbe720e4ff7a]
@startuml
skinparam dpi 180
skinparam defaultFontName "SansSerif"
skinparam ActivityFontSize 12
skinparam ActivityBorderColor #1A365D
skinparam ActivityBackgroundColor #EBF8FF
skinparam ActivityDiamondBorderColor #2B6CB0
skinparam ActivityDiamondBackgroundColor #FEFCBF
skinparam SwimlaneTitleFontSize 14
skinparam SwimlaneTitleFontStyle bold
skinparam SwimlaneBorderColor #A0AEC0
skinparam SwimlaneWidth 280

title **ACTIVITY DIAGRAM PELANGGAN - GEGARES**

|Pelanggan|
start
:Membuka Halaman Website;

|Sistem|
:Menampilkan Halaman Depan (Homepage);

|Pelanggan|
if (Status Akun / Autentikasi?) then (Belum Punya Akun)
  :Mengklik Menu Daftar;
  |Sistem|
  :Menampilkan Form Pendaftaran;
  |Pelanggan|
  :Mengisi Form Registrasi;
  |Sistem|
  :Menyimpan Data Akun Baru & Logged In;
else if (Lupa Password?) then (Lupa Password)
  :Mengklik Lupa Password;
  |Sistem|
  :Menampilkan Form Lupa Password;
  |Pelanggan|
  :Mengisi Email Akun;
  |Sistem|
  :Mengirim Link Reset via Email;
  |Pelanggan|
  :Membuka Link Reset & Form Password Baru;
  |Sistem|
  :Memperbarui Password Database & Redirect Login;
else (Sudah Punya Akun)
  :Mengisi Form Login / Google Sign-In;
  |Sistem|
  :Validasi Credential / Token OAuth;
  if (Hasil Validasi?) then (Gagal / Salah)
    :Menampilkan Pesan Error Login;
    stop
  else (Berhasil)
    :Menampilkan Halaman Depan (Logged In);
  endif
endif

|Pelanggan|
:Mengeksplorasi Produk & Interaksi;
note right
  - Pencarian Typo-Tolerant
  - Filter Kategori
  - Chatbot AI (Gemini Grounding)
  - Snap & Buy (Foto Jajanan)
end note

:Menambah Produk ke Keranjang / Wishlist;

|Sistem|
:Update State Keranjang & Wishlist (Livewire);

|Pelanggan|
:Menekan Tombol Checkout;

|Sistem|
:Validasi Telepon & Menampilkan Form Checkout;

|Pelanggan|
:Memilih Alamat Pengiriman & Pilih Kurir;

|Sistem|
:Kalkulasi Ongkir Real-time via Biteship API;

|Pelanggan|
:Input Kode Promo (Opsional) & Buat Pesanan;

|Sistem|
:Generate Hosted Payment Link / QRIS Pakasir;

|Pelanggan|
:Scan & Bayar via QRIS Pakasir;

|Sistem|
:Webhook Pakasir + Verifikasi Otoritatif API;
if (Status Pembayaran?) then (Belum Bayar / Expired)
  :Status Order Pending / Cancelled;
  stop
else (Lunas / Paid)
  :Update Order Status = Paid;
  :Pengurangan Stok Atomik (DB Transaction);
  :Auto Booking Kurir via Biteship API;
endif

|Pelanggan|
:Memantau Pelacakan Pengiriman;

|Sistem|
:Menampilkan Status Resi & Biteship Tracking Real-time;

|Pelanggan|
:Menerima Pesanan & Konfirmasi Diterima;

|Sistem|
:Update Status Order = Completed;

|Pelanggan|
:Menulis Ulasan Produk (Rating, Teks & Foto);

|Sistem|
:Menyimpan Ulasan (Menunggu Moderasi Admin);

|Pelanggan|
:Mengklik Logout;

|Sistem|
:Destroy Session & Redirect Guest;

|Pelanggan|
stop
@enduml

PlantUML version 1.2020.02(Sun Mar 01 18:22:07 CST 2020)
(GPL source distribution)
Java Runtime: OpenJDK Runtime Environment
JVM: OpenJDK 64-Bit Server VM
Java Version: 11.0.31+11-post-1ubuntu1-22.04.2-Ubuntu
Operating System: Linux
Default Encoding: UTF-8
Language: en
Country: US
--></g></svg>