<?xml version="1.0" encoding="UTF-8" standalone="no"?><svg xmlns="http://www.w3.org/2000/svg" xmlns:xlink="http://www.w3.org/1999/xlink" contentScriptType="application/ecmascript" contentStyleType="text/css" height="1490.625px" preserveAspectRatio="none" style="width:6123px;height:1490px;" version="1.1" viewBox="0 0 6123 1490" width="6123.75px" zoomAndPan="magnify"><defs><filter height="300%" id="fjdrxcci2v53h" width="300%" x="-1" y="-1"><feGaussianBlur result="blurOut" stdDeviation="3.75"/><feColorMatrix in="blurOut" result="blurOut2" type="matrix" values="0 0 0 0 0 0 0 0 0 0 0 0 0 0 0 0 0 0 .4 0"/><feOffset dx="7.5" dy="7.5" in="blurOut2" result="blurOut3"/><feBlend in="SourceGraphic" in2="blurOut3" mode="normal"/></filter></defs><g><text fill="#000000" font-family="sans-serif" font-size="33.75" font-weight="bold" lengthAdjust="spacingAndGlyphs" textLength="720" x="2700" y="50.0775">ACTIVITY DIAGRAM ADMIN - GEGARES</text><ellipse cx="1363.125" cy="120.097" fill="#000000" filter="url(#fjdrxcci2v53h)" rx="18.75" ry="18.75" style="stroke: none; stroke-width: 1.875;"/><rect fill="#FFF5F5" filter="url(#fjdrxcci2v53h)" height="63.6914" rx="23.4375" ry="23.4375" style="stroke: #742A2A; stroke-width: 2.8125;" width="577.5" x="1074.375" y="176.347"/><text fill="#000000" font-family="sans-serif" font-size="22.5" lengthAdjust="spacingAndGlyphs" textLength="540" x="1093.125" y="215.9821">Membuka Halaman Login Admin (/admin/login)</text><rect fill="#FFF5F5" filter="url(#fjdrxcci2v53h)" height="63.6914" rx="23.4375" ry="23.4375" style="stroke: #742A2A; stroke-width: 2.8125;" width="420" x="1153.125" y="378.7299"/><text fill="#000000" font-family="sans-serif" font-size="22.5" lengthAdjust="spacingAndGlyphs" textLength="382.5" x="1171.875" y="418.3649">Mengisi Email &amp; Password Admin</text><rect fill="#000000" filter="url(#fjdrxcci2v53h)" height="11.25" rx="4.6875" ry="4.6875" style="stroke: #000000; stroke-width: 1.875;" width="2683.125" x="37.5" y="824.8041"/><rect fill="#FFF5F5" filter="url(#fjdrxcci2v53h)" height="63.6914" rx="23.4375" ry="23.4375" style="stroke: #742A2A; stroke-width: 2.8125;" width="301.875" x="60" y="873.5541"/><text fill="#000000" font-family="sans-serif" font-size="22.5" lengthAdjust="spacingAndGlyphs" textLength="264.375" x="78.75" y="913.1891">Kelola Kategori Produk</text><rect fill="#FFF5F5" filter="url(#fjdrxcci2v53h)" height="63.6914" rx="23.4375" ry="23.4375" style="stroke: #742A2A; stroke-width: 2.8125;" width="305.625" x="380.625" y="873.5541"/><text fill="#000000" font-family="sans-serif" font-size="22.5" lengthAdjust="spacingAndGlyphs" textLength="268.125" x="399.375" y="913.1891">Kelola Produk &amp; Varian</text><rect fill="#FFF5F5" filter="url(#fjdrxcci2v53h)" height="63.6914" rx="23.4375" ry="23.4375" style="stroke: #742A2A; stroke-width: 2.8125;" width="350.625" x="705" y="873.5541"/><text fill="#000000" font-family="sans-serif" font-size="22.5" lengthAdjust="spacingAndGlyphs" textLength="313.125" x="723.75" y="913.1891">Kelola Kode Promo / Kupon</text><rect fill="#FFF5F5" filter="url(#fjdrxcci2v53h)" height="63.6914" rx="23.4375" ry="23.4375" style="stroke: #742A2A; stroke-width: 2.8125;" width="382.5" x="1117.5" y="873.5541"/><text fill="#000000" font-family="sans-serif" font-size="22.5" lengthAdjust="spacingAndGlyphs" textLength="345" x="1136.25" y="913.1891">Kelola Pesanan &amp; Pengiriman</text><rect fill="#FFF5F5" filter="url(#fjdrxcci2v53h)" height="63.6914" rx="23.4375" ry="23.4375" style="stroke: #742A2A; stroke-width: 2.8125;" width="365.625" x="1640.625" y="873.5541"/><text fill="#000000" font-family="sans-serif" font-size="22.5" lengthAdjust="spacingAndGlyphs" textLength="328.125" x="1659.375" y="913.1891">Moderasi Ulasan Pelanggan</text><rect fill="#FFF5F5" filter="url(#fjdrxcci2v53h)" height="63.6914" rx="23.4375" ry="23.4375" style="stroke: #742A2A; stroke-width: 2.8125;" width="298.125" x="2025" y="873.5541"/><text fill="#000000" font-family="sans-serif" font-size="22.5" lengthAdjust="spacingAndGlyphs" textLength="260.625" x="2043.75" y="913.1891">Kelola Data Pengguna</text><rect fill="#FFF5F5" filter="url(#fjdrxcci2v53h)" height="63.6914" rx="23.4375" ry="23.4375" style="stroke: #742A2A; stroke-width: 2.8125;" width="356.25" x="2341.875" y="873.5541"/><text fill="#000000" font-family="sans-serif" font-size="22.5" lengthAdjust="spacingAndGlyphs" textLength="318.75" x="2360.625" y="913.1891">Pengaturan Toko &amp; Konten</text><rect fill="#FFF5F5" filter="url(#fjdrxcci2v53h)" height="63.6914" rx="23.4375" ry="23.4375" style="stroke: #742A2A; stroke-width: 2.8125;" width="418.125" x="1154.0625" y="1225.8783"/><text fill="#000000" font-family="sans-serif" font-size="22.5" lengthAdjust="spacingAndGlyphs" textLength="380.625" x="1172.8125" y="1265.5133">Mengklik Tombol Keluar (Logout)</text><ellipse cx="1363.125" cy="1448.8861" fill="#FFFFFF" filter="url(#fjdrxcci2v53h)" rx="20.625" ry="20.625" style="stroke: #000000; stroke-width: 1.875;"/><ellipse cx="1363.125" cy="1448.8861" fill="#000000" rx="11.25" ry="11.25" style="stroke: #7F7F7F; stroke-width: 1.875;"/><rect fill="#FFF5F5" filter="url(#fjdrxcci2v53h)" height="63.6914" rx="23.4375" ry="23.4375" style="stroke: #742A2A; stroke-width: 2.8125;" width="405" x="4209.375" y="277.5385"/><text fill="#000000" font-family="sans-serif" font-size="22.5" lengthAdjust="spacingAndGlyphs" textLength="367.5" x="4228.125" y="317.1735">Menampilkan Form Login Admin</text><rect fill="#FFF5F5" filter="url(#fjdrxcci2v53h)" height="63.6914" rx="23.4375" ry="23.4375" style="stroke: #742A2A; stroke-width: 2.8125;" width="335.625" x="4244.0625" y="479.9213"/><text fill="#000000" font-family="sans-serif" font-size="22.5" lengthAdjust="spacingAndGlyphs" textLength="298.125" x="4262.8125" y="519.5563">Validasi Hak Akses Admin</text><polygon fill="#FEFCBF" filter="url(#fjdrxcci2v53h)" points="4335,581.1127,4488.75,581.1127,4511.25,603.6127,4488.75,626.1127,4335,626.1127,4312.5,603.6127,4335,581.1127" style="stroke: #9B2C2C; stroke-width: 2.8125;"/><text fill="#000000" font-family="sans-serif" font-size="20.625" lengthAdjust="spacingAndGlyphs" textLength="153.75" x="4335" y="610.7529">Hasil Validasi?</text><text fill="#000000" font-family="sans-serif" font-size="20.625" lengthAdjust="spacingAndGlyphs" textLength="223.125" x="4089.375" y="598.7485">Gagal / Bukan Admin</text><text fill="#000000" font-family="sans-serif" font-size="20.625" lengthAdjust="spacingAndGlyphs" textLength="234.375" x="4511.25" y="598.7485">Berhasil / Admin Valid</text><rect fill="#FFF5F5" filter="url(#fjdrxcci2v53h)" height="63.6914" rx="23.4375" ry="23.4375" style="stroke: #742A2A; stroke-width: 2.8125;" width="436.875" x="3936.0938" y="644.8627"/><text fill="#000000" font-family="sans-serif" font-size="22.5" lengthAdjust="spacingAndGlyphs" textLength="399.375" x="3954.8438" y="684.4977">Menampilkan Pesan Akses Ditolak</text><ellipse cx="4154.5313" cy="766.6791" fill="#FFFFFF" filter="url(#fjdrxcci2v53h)" rx="20.625" ry="20.625" style="stroke: #000000; stroke-width: 1.875;"/><ellipse cx="4154.5313" cy="766.6791" fill="#000000" rx="11.25" ry="11.25" style="stroke: #7F7F7F; stroke-width: 1.875;"/><rect fill="#FFF5F5" filter="url(#fjdrxcci2v53h)" height="63.6914" rx="23.4375" ry="23.4375" style="stroke: #742A2A; stroke-width: 2.8125;" width="517.5" x="4410.4688" y="644.8627"/><text fill="#000000" font-family="sans-serif" font-size="22.5" lengthAdjust="spacingAndGlyphs" textLength="480" x="4429.2188" y="684.4977">Menampilkan Halaman Dashboard Admin</text><rect fill="#FFF5F5" filter="url(#fjdrxcci2v53h)" height="63.6914" rx="23.4375" ry="23.4375" style="stroke: #742A2A; stroke-width: 2.8125;" width="406.875" x="2761.875" y="974.7455"/><text fill="#000000" font-family="sans-serif" font-size="22.5" lengthAdjust="spacingAndGlyphs" textLength="369.375" x="2780.625" y="1014.3805">Menampilkan Halaman Kategori</text><rect fill="#FFF5F5" filter="url(#fjdrxcci2v53h)" height="63.6914" rx="23.4375" ry="23.4375" style="stroke: #742A2A; stroke-width: 2.8125;" width="337.5" x="2796.5625" y="1075.9369"/><text fill="#000000" font-family="sans-serif" font-size="22.5" lengthAdjust="spacingAndGlyphs" textLength="300" x="2815.3125" y="1115.5719">Menyimpan Data Kategori</text><rect fill="#FFF5F5" filter="url(#fjdrxcci2v53h)" height="63.6914" rx="23.4375" ry="23.4375" style="stroke: #742A2A; stroke-width: 2.8125;" width="391.875" x="3195.9375" y="974.7455"/><text fill="#000000" font-family="sans-serif" font-size="22.5" lengthAdjust="spacingAndGlyphs" textLength="354.375" x="3214.6875" y="1014.3805">Menampilkan Halaman Produk</text><rect fill="#FFF5F5" filter="url(#fjdrxcci2v53h)" height="63.6914" rx="23.4375" ry="23.4375" style="stroke: #742A2A; stroke-width: 2.8125;" width="408.75" x="3187.5" y="1075.9369"/><text fill="#000000" font-family="sans-serif" font-size="22.5" lengthAdjust="spacingAndGlyphs" textLength="371.25" x="3206.25" y="1115.5719">Menyimpan Data Produk &amp; Foto</text><rect fill="#FFF5F5" filter="url(#fjdrxcci2v53h)" height="63.6914" rx="23.4375" ry="23.4375" style="stroke: #742A2A; stroke-width: 2.8125;" width="450" x="3615" y="974.7455"/><text fill="#000000" font-family="sans-serif" font-size="22.5" lengthAdjust="spacingAndGlyphs" textLength="412.5" x="3633.75" y="1014.3805">Menampilkan Halaman Kode Promo</text><rect fill="#FFF5F5" filter="url(#fjdrxcci2v53h)" height="63.6914" rx="23.4375" ry="23.4375" style="stroke: #742A2A; stroke-width: 2.8125;" width="399.375" x="3640.3125" y="1075.9369"/><text fill="#000000" font-family="sans-serif" font-size="22.5" lengthAdjust="spacingAndGlyphs" textLength="361.875" x="3659.0625" y="1115.5719">Menyimpan Data Kupon Diskon</text><rect fill="#FFF5F5" filter="url(#fjdrxcci2v53h)" height="63.6914" rx="23.4375" ry="23.4375" style="stroke: #742A2A; stroke-width: 2.8125;" width="446.25" x="4134.375" y="974.7455"/><text fill="#000000" font-family="sans-serif" font-size="22.5" lengthAdjust="spacingAndGlyphs" textLength="408.75" x="4153.125" y="1014.3805">Menampilkan Daftar Pesanan Toko</text><rect fill="#FFF5F5" filter="url(#fjdrxcci2v53h)" height="63.6914" rx="23.4375" ry="23.4375" style="stroke: #742A2A; stroke-width: 2.8125;" width="480" x="4117.5" y="1075.9369"/><text fill="#000000" font-family="sans-serif" font-size="22.5" lengthAdjust="spacingAndGlyphs" textLength="442.5" x="4136.25" y="1115.5719">Memperbarui Status &amp; Cetak Laporan</text><rect fill="#FFF5F5" filter="url(#fjdrxcci2v53h)" height="63.6914" rx="23.4375" ry="23.4375" style="stroke: #742A2A; stroke-width: 2.8125;" width="442.5" x="4650.9375" y="974.7455"/><text fill="#000000" font-family="sans-serif" font-size="22.5" lengthAdjust="spacingAndGlyphs" textLength="405" x="4669.6875" y="1014.3805">Menampilkan Daftar Ulasan Masuk</text><rect fill="#FFF5F5" filter="url(#fjdrxcci2v53h)" height="63.6914" rx="23.4375" ry="23.4375" style="stroke: #742A2A; stroke-width: 2.8125;" width="444.375" x="4650" y="1075.9369"/><text fill="#000000" font-family="sans-serif" font-size="22.5" lengthAdjust="spacingAndGlyphs" textLength="406.875" x="4668.75" y="1115.5719">Perbarui Approval &amp; Rating Produk</text><rect fill="#FFF5F5" filter="url(#fjdrxcci2v53h)" height="63.6914" rx="23.4375" ry="23.4375" style="stroke: #742A2A; stroke-width: 2.8125;" width="399.375" x="5135.625" y="974.7455"/><text fill="#000000" font-family="sans-serif" font-size="22.5" lengthAdjust="spacingAndGlyphs" textLength="361.875" x="5154.375" y="1014.3805">Menampilkan Daftar Pengguna</text><rect fill="#FFF5F5" filter="url(#fjdrxcci2v53h)" height="63.6914" rx="23.4375" ry="23.4375" style="stroke: #742A2A; stroke-width: 2.8125;" width="444.375" x="5113.125" y="1075.9369"/><text fill="#000000" font-family="sans-serif" font-size="22.5" lengthAdjust="spacingAndGlyphs" textLength="406.875" x="5131.875" y="1115.5719">Menyimpan Data Pengguna &amp; Role</text><rect fill="#FFF5F5" filter="url(#fjdrxcci2v53h)" height="63.6914" rx="23.4375" ry="23.4375" style="stroke: #742A2A; stroke-width: 2.8125;" width="466.875" x="5585.625" y="974.7455"/><text fill="#000000" font-family="sans-serif" font-size="22.5" lengthAdjust="spacingAndGlyphs" textLength="429.375" x="5604.375" y="1014.3805">Menampilkan Form Pengaturan Toko</text><rect fill="#FFF5F5" filter="url(#fjdrxcci2v53h)" height="63.6914" rx="23.4375" ry="23.4375" style="stroke: #742A2A; stroke-width: 2.8125;" width="485.625" x="5576.25" y="1075.9369"/><text fill="#000000" font-family="sans-serif" font-size="22.5" lengthAdjust="spacingAndGlyphs" textLength="448.125" x="5595" y="1115.5719">Menyimpan Informasi &amp; Tampilan Toko</text><rect fill="#000000" filter="url(#fjdrxcci2v53h)" height="11.25" rx="4.6875" ry="4.6875" style="stroke: #000000; stroke-width: 1.875;" width="3345" x="2739.375" y="1177.1283"/><rect fill="#FFF5F5" filter="url(#fjdrxcci2v53h)" height="63.6914" rx="23.4375" ry="23.4375" style="stroke: #742A2A; stroke-width: 2.8125;" width="601.875" x="4110.9375" y="1327.0697"/><text fill="#000000" font-family="sans-serif" font-size="22.5" lengthAdjust="spacingAndGlyphs" textLength="564.375" x="4129.6875" y="1366.7047">Keluar dari Akun Admin &amp; Kembali ke Form Login</text><line style="stroke: #A80036; stroke-width: 2.8125;" x1="1363.125" x2="1363.125" y1="138.847" y2="176.347"/><polygon fill="#A80036" points="1355.625,157.597,1363.125,176.347,1370.625,157.597,1363.125,165.097" style="stroke: #A80036; stroke-width: 1.875;"/><line style="stroke: #A80036; stroke-width: 2.8125;" x1="210.9375" x2="210.9375" y1="836.0541" y2="873.5541"/><polygon fill="#A80036" points="203.4375,854.8041,210.9375,873.5541,218.4375,854.8041,210.9375,862.3041" style="stroke: #A80036; stroke-width: 1.875;"/><line style="stroke: #A80036; stroke-width: 2.8125;" x1="533.4375" x2="533.4375" y1="836.0541" y2="873.5541"/><polygon fill="#A80036" points="525.9375,854.8041,533.4375,873.5541,540.9375,854.8041,533.4375,862.3041" style="stroke: #A80036; stroke-width: 1.875;"/><line style="stroke: #A80036; stroke-width: 2.8125;" x1="880.3125" x2="880.3125" y1="836.0541" y2="873.5541"/><polygon fill="#A80036" points="872.8125,854.8041,880.3125,873.5541,887.8125,854.8041,880.3125,862.3041" style="stroke: #A80036; stroke-width: 1.875;"/><line style="stroke: #A80036; stroke-width: 2.8125;" x1="1308.75" x2="1308.75" y1="836.0541" y2="873.5541"/><polygon fill="#A80036" points="1301.25,854.8041,1308.75,873.5541,1316.25,854.8041,1308.75,862.3041" style="stroke: #A80036; stroke-width: 1.875;"/><line style="stroke: #A80036; stroke-width: 2.8125;" x1="1823.4375" x2="1823.4375" y1="836.0541" y2="873.5541"/><polygon fill="#A80036" points="1815.9375,854.8041,1823.4375,873.5541,1830.9375,854.8041,1823.4375,862.3041" style="stroke: #A80036; stroke-width: 1.875;"/><line style="stroke: #A80036; stroke-width: 2.8125;" x1="2174.0625" x2="2174.0625" y1="836.0541" y2="873.5541"/><polygon fill="#A80036" points="2166.5625,854.8041,2174.0625,873.5541,2181.5625,854.8041,2174.0625,862.3041" style="stroke: #A80036; stroke-width: 1.875;"/><line style="stroke: #A80036; stroke-width: 2.8125;" x1="2520" x2="2520" y1="836.0541" y2="873.5541"/><polygon fill="#A80036" points="2512.5,854.8041,2520,873.5541,2527.5,854.8041,2520,862.3041" style="stroke: #A80036; stroke-width: 1.875;"/><line style="stroke: #A80036; stroke-width: 2.8125;" x1="4154.5313" x2="4154.5313" y1="708.5541" y2="746.0541"/><polygon fill="#A80036" points="4147.0313,727.3041,4154.5313,746.0541,4162.0313,727.3041,4154.5313,734.8041" style="stroke: #A80036; stroke-width: 1.875;"/><line style="stroke: #A80036; stroke-width: 2.8125;" x1="4312.5" x2="4154.5313" y1="603.6127" y2="603.6127"/><line style="stroke: #A80036; stroke-width: 2.8125;" x1="4154.5313" x2="4154.5313" y1="603.6127" y2="644.8627"/><polygon fill="#A80036" points="4147.0313,626.1127,4154.5313,644.8627,4162.0313,626.1127,4154.5313,633.6127" style="stroke: #A80036; stroke-width: 1.875;"/><line style="stroke: #A80036; stroke-width: 2.8125;" x1="4511.25" x2="4669.2188" y1="603.6127" y2="603.6127"/><line style="stroke: #A80036; stroke-width: 2.8125;" x1="4669.2188" x2="4669.2188" y1="603.6127" y2="644.8627"/><polygon fill="#A80036" points="4661.7188,626.1127,4669.2188,644.8627,4676.7188,626.1127,4669.2188,633.6127" style="stroke: #A80036; stroke-width: 1.875;"/><line style="stroke: #A80036; stroke-width: 2.8125;" x1="4669.2188" x2="4669.2188" y1="708.5541" y2="796.6791"/><line style="stroke: #A80036; stroke-width: 2.8125;" x1="4669.2188" x2="1363.125" y1="796.6791" y2="796.6791"/><line style="stroke: #A80036; stroke-width: 2.8125;" x1="1363.125" x2="1363.125" y1="796.6791" y2="824.8041"/><polygon fill="#A80036" points="1355.625,806.0541,1363.125,824.8041,1370.625,806.0541,1363.125,813.5541" style="stroke: #A80036; stroke-width: 1.875;"/><line style="stroke: #A80036; stroke-width: 2.8125;" x1="4411.875" x2="4411.875" y1="543.6127" y2="581.1127"/><polygon fill="#A80036" points="4404.375,562.3627,4411.875,581.1127,4419.375,562.3627,4411.875,569.8627" style="stroke: #A80036; stroke-width: 1.875;"/><line style="stroke: #A80036; stroke-width: 2.8125;" x1="2965.3125" x2="2965.3125" y1="1038.4369" y2="1075.9369"/><polygon fill="#A80036" points="2957.8125,1057.1869,2965.3125,1075.9369,2972.8125,1057.1869,2965.3125,1064.6869" style="stroke: #A80036; stroke-width: 1.875;"/><line style="stroke: #A80036; stroke-width: 2.8125;" x1="3391.875" x2="3391.875" y1="1038.4369" y2="1075.9369"/><polygon fill="#A80036" points="3384.375,1057.1869,3391.875,1075.9369,3399.375,1057.1869,3391.875,1064.6869" style="stroke: #A80036; stroke-width: 1.875;"/><line style="stroke: #A80036; stroke-width: 2.8125;" x1="3840" x2="3840" y1="1038.4369" y2="1075.9369"/><polygon fill="#A80036" points="3832.5,1057.1869,3840,1075.9369,3847.5,1057.1869,3840,1064.6869" style="stroke: #A80036; stroke-width: 1.875;"/><line style="stroke: #A80036; stroke-width: 2.8125;" x1="4357.5" x2="4357.5" y1="1038.4369" y2="1075.9369"/><polygon fill="#A80036" points="4350,1057.1869,4357.5,1075.9369,4365,1057.1869,4357.5,1064.6869" style="stroke: #A80036; stroke-width: 1.875;"/><line style="stroke: #A80036; stroke-width: 2.8125;" x1="4872.1875" x2="4872.1875" y1="1038.4369" y2="1075.9369"/><polygon fill="#A80036" points="4864.6875,1057.1869,4872.1875,1075.9369,4879.6875,1057.1869,4872.1875,1064.6869" style="stroke: #A80036; stroke-width: 1.875;"/><line style="stroke: #A80036; stroke-width: 2.8125;" x1="5335.3125" x2="5335.3125" y1="1038.4369" y2="1075.9369"/><polygon fill="#A80036" points="5327.8125,1057.1869,5335.3125,1075.9369,5342.8125,1057.1869,5335.3125,1064.6869" style="stroke: #A80036; stroke-width: 1.875;"/><line style="stroke: #A80036; stroke-width: 2.8125;" x1="5819.0625" x2="5819.0625" y1="1038.4369" y2="1075.9369"/><polygon fill="#A80036" points="5811.5625,1057.1869,5819.0625,1075.9369,5826.5625,1057.1869,5819.0625,1064.6869" style="stroke: #A80036; stroke-width: 1.875;"/><line style="stroke: #A80036; stroke-width: 2.8125;" x1="2965.3125" x2="2965.3125" y1="1139.6283" y2="1177.1283"/><polygon fill="#A80036" points="2957.8125,1158.3783,2965.3125,1177.1283,2972.8125,1158.3783,2965.3125,1165.8783" style="stroke: #A80036; stroke-width: 1.875;"/><line style="stroke: #A80036; stroke-width: 2.8125;" x1="3391.875" x2="3391.875" y1="1139.6283" y2="1177.1283"/><polygon fill="#A80036" points="3384.375,1158.3783,3391.875,1177.1283,3399.375,1158.3783,3391.875,1165.8783" style="stroke: #A80036; stroke-width: 1.875;"/><line style="stroke: #A80036; stroke-width: 2.8125;" x1="3840" x2="3840" y1="1139.6283" y2="1177.1283"/><polygon fill="#A80036" points="3832.5,1158.3783,3840,1177.1283,3847.5,1158.3783,3840,1165.8783" style="stroke: #A80036; stroke-width: 1.875;"/><line style="stroke: #A80036; stroke-width: 2.8125;" x1="4357.5" x2="4357.5" y1="1139.6283" y2="1177.1283"/><polygon fill="#A80036" points="4350,1158.3783,4357.5,1177.1283,4365,1158.3783,4357.5,1165.8783" style="stroke: #A80036; stroke-width: 1.875;"/><line style="stroke: #A80036; stroke-width: 2.8125;" x1="4872.1875" x2="4872.1875" y1="1139.6283" y2="1177.1283"/><polygon fill="#A80036" points="4864.6875,1158.3783,4872.1875,1177.1283,4879.6875,1158.3783,4872.1875,1165.8783" style="stroke: #A80036; stroke-width: 1.875;"/><line style="stroke: #A80036; stroke-width: 2.8125;" x1="5335.3125" x2="5335.3125" y1="1139.6283" y2="1177.1283"/><polygon fill="#A80036" points="5327.8125,1158.3783,5335.3125,1177.1283,5342.8125,1158.3783,5335.3125,1165.8783" style="stroke: #A80036; stroke-width: 1.875;"/><line style="stroke: #A80036; stroke-width: 2.8125;" x1="5819.0625" x2="5819.0625" y1="1139.6283" y2="1177.1283"/><polygon fill="#A80036" points="5811.5625,1158.3783,5819.0625,1177.1283,5826.5625,1158.3783,5819.0625,1165.8783" style="stroke: #A80036; stroke-width: 1.875;"/><line style="stroke: #A80036; stroke-width: 2.8125;" x1="1363.125" x2="1363.125" y1="240.0385" y2="249.4135"/><line style="stroke: #A80036; stroke-width: 2.8125;" x1="1363.125" x2="4411.875" y1="249.4135" y2="249.4135"/><line style="stroke: #A80036; stroke-width: 2.8125;" x1="4411.875" x2="4411.875" y1="249.4135" y2="277.5385"/><polygon fill="#A80036" points="4404.375,258.7885,4411.875,277.5385,4419.375,258.7885,4411.875,266.2885" style="stroke: #A80036; stroke-width: 1.875;"/><line style="stroke: #A80036; stroke-width: 2.8125;" x1="4411.875" x2="4411.875" y1="341.2299" y2="350.6049"/><line style="stroke: #A80036; stroke-width: 2.8125;" x1="4411.875" x2="1363.125" y1="350.6049" y2="350.6049"/><line style="stroke: #A80036; stroke-width: 2.8125;" x1="1363.125" x2="1363.125" y1="350.6049" y2="378.7299"/><polygon fill="#A80036" points="1355.625,359.9799,1363.125,378.7299,1370.625,359.9799,1363.125,367.4799" style="stroke: #A80036; stroke-width: 1.875;"/><line style="stroke: #A80036; stroke-width: 2.8125;" x1="1363.125" x2="1363.125" y1="442.4213" y2="451.7963"/><line style="stroke: #A80036; stroke-width: 2.8125;" x1="1363.125" x2="4411.875" y1="451.7963" y2="451.7963"/><line style="stroke: #A80036; stroke-width: 2.8125;" x1="4411.875" x2="4411.875" y1="451.7963" y2="479.9213"/><polygon fill="#A80036" points="4404.375,461.1713,4411.875,479.9213,4419.375,461.1713,4411.875,468.6713" style="stroke: #A80036; stroke-width: 1.875;"/><line style="stroke: #A80036; stroke-width: 2.8125;" x1="210.9375" x2="210.9375" y1="937.2455" y2="946.6205"/><line style="stroke: #A80036; stroke-width: 2.8125;" x1="210.9375" x2="2965.3125" y1="946.6205" y2="946.6205"/><line style="stroke: #A80036; stroke-width: 2.8125;" x1="2965.3125" x2="2965.3125" y1="946.6205" y2="974.7455"/><polygon fill="#A80036" points="2957.8125,955.9955,2965.3125,974.7455,2972.8125,955.9955,2965.3125,963.4955" style="stroke: #A80036; stroke-width: 1.875;"/><line style="stroke: #A80036; stroke-width: 2.8125;" x1="533.4375" x2="533.4375" y1="937.2455" y2="946.6205"/><line style="stroke: #A80036; stroke-width: 2.8125;" x1="533.4375" x2="3391.875" y1="946.6205" y2="946.6205"/><line style="stroke: #A80036; stroke-width: 2.8125;" x1="3391.875" x2="3391.875" y1="946.6205" y2="974.7455"/><polygon fill="#A80036" points="3384.375,955.9955,3391.875,974.7455,3399.375,955.9955,3391.875,963.4955" style="stroke: #A80036; stroke-width: 1.875;"/><line style="stroke: #A80036; stroke-width: 2.8125;" x1="880.3125" x2="880.3125" y1="937.2455" y2="946.6205"/><line style="stroke: #A80036; stroke-width: 2.8125;" x1="880.3125" x2="3840" y1="946.6205" y2="946.6205"/><line style="stroke: #A80036; stroke-width: 2.8125;" x1="3840" x2="3840" y1="946.6205" y2="974.7455"/><polygon fill="#A80036" points="3832.5,955.9955,3840,974.7455,3847.5,955.9955,3840,963.4955" style="stroke: #A80036; stroke-width: 1.875;"/><line style="stroke: #A80036; stroke-width: 2.8125;" x1="1308.75" x2="1308.75" y1="937.2455" y2="946.6205"/><line style="stroke: #A80036; stroke-width: 2.8125;" x1="1308.75" x2="4357.5" y1="946.6205" y2="946.6205"/><line style="stroke: #A80036; stroke-width: 2.8125;" x1="4357.5" x2="4357.5" y1="946.6205" y2="974.7455"/><polygon fill="#A80036" points="4350,955.9955,4357.5,974.7455,4365,955.9955,4357.5,963.4955" style="stroke: #A80036; stroke-width: 1.875;"/><line style="stroke: #A80036; stroke-width: 2.8125;" x1="1823.4375" x2="1823.4375" y1="937.2455" y2="946.6205"/><line style="stroke: #A80036; stroke-width: 2.8125;" x1="1823.4375" x2="4872.1875" y1="946.6205" y2="946.6205"/><line style="stroke: #A80036; stroke-width: 2.8125;" x1="4872.1875" x2="4872.1875" y1="946.6205" y2="974.7455"/><polygon fill="#A80036" points="4864.6875,955.9955,4872.1875,974.7455,4879.6875,955.9955,4872.1875,963.4955" style="stroke: #A80036; stroke-width: 1.875;"/><line style="stroke: #A80036; stroke-width: 2.8125;" x1="2174.0625" x2="2174.0625" y1="937.2455" y2="946.6205"/><line style="stroke: #A80036; stroke-width: 2.8125;" x1="2174.0625" x2="5335.3125" y1="946.6205" y2="946.6205"/><line style="stroke: #A80036; stroke-width: 2.8125;" x1="5335.3125" x2="5335.3125" y1="946.6205" y2="974.7455"/><polygon fill="#A80036" points="5327.8125,955.9955,5335.3125,974.7455,5342.8125,955.9955,5335.3125,963.4955" style="stroke: #A80036; stroke-width: 1.875;"/><line style="stroke: #A80036; stroke-width: 2.8125;" x1="2520" x2="2520" y1="937.2455" y2="946.6205"/><line style="stroke: #A80036; stroke-width: 2.8125;" x1="2520" x2="5819.0625" y1="946.6205" y2="946.6205"/><line style="stroke: #A80036; stroke-width: 2.8125;" x1="5819.0625" x2="5819.0625" y1="946.6205" y2="974.7455"/><polygon fill="#A80036" points="5811.5625,955.9955,5819.0625,974.7455,5826.5625,955.9955,5819.0625,963.4955" style="stroke: #A80036; stroke-width: 1.875;"/><line style="stroke: #A80036; stroke-width: 2.8125;" x1="4411.875" x2="4411.875" y1="1188.3783" y2="1197.7533"/><line style="stroke: #A80036; stroke-width: 2.8125;" x1="4411.875" x2="1363.125" y1="1197.7533" y2="1197.7533"/><line style="stroke: #A80036; stroke-width: 2.8125;" x1="1363.125" x2="1363.125" y1="1197.7533" y2="1225.8783"/><polygon fill="#A80036" points="1355.625,1207.1283,1363.125,1225.8783,1370.625,1207.1283,1363.125,1214.6283" style="stroke: #A80036; stroke-width: 1.875;"/><line style="stroke: #A80036; stroke-width: 2.8125;" x1="1363.125" x2="1363.125" y1="1289.5697" y2="1298.9447"/><line style="stroke: #A80036; stroke-width: 2.8125;" x1="1363.125" x2="4411.875" y1="1298.9447" y2="1298.9447"/><line style="stroke: #A80036; stroke-width: 2.8125;" x1="4411.875" x2="4411.875" y1="1298.9447" y2="1327.0697"/><polygon fill="#A80036" points="4404.375,1308.3197,4411.875,1327.0697,4419.375,1308.3197,4411.875,1315.8197" style="stroke: #A80036; stroke-width: 1.875;"/><line style="stroke: #A80036; stroke-width: 2.8125;" x1="4411.875" x2="4411.875" y1="1390.7611" y2="1400.1361"/><line style="stroke: #A80036; stroke-width: 2.8125;" x1="4411.875" x2="1363.125" y1="1400.1361" y2="1400.1361"/><line style="stroke: #A80036; stroke-width: 2.8125;" x1="1363.125" x2="1363.125" y1="1400.1361" y2="1428.2611"/><polygon fill="#A80036" points="1355.625,1409.5111,1363.125,1428.2611,1370.625,1409.5111,1363.125,1417.0111" style="stroke: #A80036; stroke-width: 1.875;"/><text fill="#000000" font-family="sans-serif" font-size="26.25" font-weight="bold" lengthAdjust="spacingAndGlyphs" textLength="91.875" x="1316.25" y="85.7813">Admin</text><text fill="#000000" font-family="sans-serif" font-size="26.25" font-weight="bold" lengthAdjust="spacingAndGlyphs" textLength="99.375" x="4361.25" y="85.7813">Sistem</text><line style="stroke: #A0AEC0; stroke-width: 3.75;" x1="18.75" x2="18.75" y1="61.4154" y2="1469.5111"/><line style="stroke: #A0AEC0; stroke-width: 3.75;" x1="2730" x2="2730" y1="61.4154" y2="1469.5111"/><line style="stroke: #A0AEC0; stroke-width: 3.75;" x1="6101.25" x2="6101.25" y1="61.4154" y2="1469.5111"/><!--MD5=[d2849af91f19825d93ea77048bbb0eba]
@startuml
skinparam dpi 180
skinparam defaultFontName "SansSerif"
skinparam ActivityFontSize 12
skinparam ActivityBorderColor #742A2A
skinparam ActivityBackgroundColor #FFF5F5
skinparam ActivityDiamondBorderColor #9B2C2C
skinparam ActivityDiamondBackgroundColor #FEFCBF
skinparam SwimlaneTitleFontSize 14
skinparam SwimlaneTitleFontStyle bold
skinparam SwimlaneBorderColor #A0AEC0
skinparam SwimlaneWidth 280

title **ACTIVITY DIAGRAM ADMIN - GEGARES**

|Admin|
start
:Membuka Halaman Login Admin (/admin/login);

|Sistem|
:Menampilkan Form Login Admin;

|Admin|
:Mengisi Email & Password Admin;

|Sistem|
:Validasi Hak Akses Admin;
if (Hasil Validasi?) then (Gagal / Bukan Admin)
  :Menampilkan Pesan Akses Ditolak;
  stop
else (Berhasil / Admin Valid)
  :Menampilkan Halaman Dashboard Admin;
endif

|Admin|
fork
  :Kelola Kategori Produk;
  |Sistem|
  :Menampilkan Halaman Kategori;
  :Menyimpan Data Kategori;

fork again
  |Admin|
  :Kelola Produk & Varian;
  |Sistem|
  :Menampilkan Halaman Produk;
  :Menyimpan Data Produk & Foto;

fork again
  |Admin|
  :Kelola Kode Promo / Kupon;
  |Sistem|
  :Menampilkan Halaman Kode Promo;
  :Menyimpan Data Kupon Diskon;

fork again
  |Admin|
  :Kelola Pesanan & Pengiriman;
  |Sistem|
  :Menampilkan Daftar Pesanan Toko;
  :Memperbarui Status & Cetak Laporan;

fork again
  |Admin|
  :Moderasi Ulasan Pelanggan;
  |Sistem|
  :Menampilkan Daftar Ulasan Masuk;
  :Perbarui Approval & Rating Produk;

fork again
  |Admin|
  :Kelola Data Pengguna;
  |Sistem|
  :Menampilkan Daftar Pengguna;
  :Menyimpan Data Pengguna & Role;

fork again
  |Admin|
  :Pengaturan Toko & Konten;
  |Sistem|
  :Menampilkan Form Pengaturan Toko;
  :Menyimpan Informasi & Tampilan Toko;
end fork

|Admin|
:Mengklik Tombol Keluar (Logout);

|Sistem|
:Keluar dari Akun Admin & Kembali ke Form Login;

|Admin|
stop
@enduml

PlantUML version 1.2020.02(Sun Mar 01 18:22:07 CST 2020)
(GPL source distribution)
Java Runtime: OpenJDK Runtime Environment
JVM: OpenJDK 64-Bit Server VM
Java Version: 11.0.31+11-post-1ubuntu1-22.04.2-Ubuntu
Operating System: Linux
Default Encoding: UTF-8
Language: en
Country: US
--></g></svg>