<?xml version="1.0" encoding="UTF-8" standalone="no"?><svg xmlns="http://www.w3.org/2000/svg" xmlns:xlink="http://www.w3.org/1999/xlink" contentScriptType="application/ecmascript" contentStyleType="text/css" height="3116.25px" preserveAspectRatio="none" style="width:3628px;height:3116px;" version="1.1" viewBox="0 0 3628 3116" width="3628.125px" zoomAndPan="magnify"><defs><filter height="300%" id="f15kivj0kmwshl" width="300%" x="-1" y="-1"><feGaussianBlur result="blurOut" stdDeviation="3.75"/><feColorMatrix in="blurOut" result="blurOut2" type="matrix" values="0 0 0 0 0 0 0 0 0 0 0 0 0 0 0 0 0 0 .4 0"/><feOffset dx="7.5" dy="7.5" in="blurOut2" result="blurOut3"/><feBlend in="SourceGraphic" in2="blurOut3" mode="normal"/></filter></defs><g><text fill="#000000" font-family="sans-serif" font-size="33.75" font-weight="bold" lengthAdjust="spacingAndGlyphs" textLength="823.125" x="1400.625" y="50.0775">ACTIVITY DIAGRAM PELANGGAN - GEGARES</text><ellipse cx="998.4375" cy="120.097" fill="#000000" filter="url(#f15kivj0kmwshl)" rx="18.75" ry="18.75" style="stroke: none; stroke-width: 1.875;"/><rect fill="#EBF8FF" filter="url(#f15kivj0kmwshl)" height="63.6914" rx="23.4375" ry="23.4375" style="stroke: #1A365D; stroke-width: 2.8125;" width="358.125" x="819.375" y="176.347"/><text fill="#000000" font-family="sans-serif" font-size="22.5" lengthAdjust="spacingAndGlyphs" textLength="320.625" x="838.125" y="215.9821">Membuka Website Gegares</text><polygon fill="#FEFCBF" filter="url(#f15kivj0kmwshl)" points="125.625,378.7299,264.375,378.7299,286.875,401.2299,264.375,423.7299,125.625,423.7299,103.125,401.2299,125.625,378.7299" style="stroke: #2B6CB0; stroke-width: 2.8125;"/><text fill="#000000" font-family="sans-serif" font-size="20.625" lengthAdjust="spacingAndGlyphs" textLength="196.875" x="202.5" y="442.8745">Belum Punya Akun</text><text fill="#000000" font-family="sans-serif" font-size="20.625" lengthAdjust="spacingAndGlyphs" textLength="138.75" x="125.625" y="408.3701">Status Akun?</text><rect fill="#EBF8FF" filter="url(#f15kivj0kmwshl)" height="63.6914" rx="23.4375" ry="23.4375" style="stroke: #1A365D; stroke-width: 2.8125;" width="315" x="37.5" y="485.2386"/><text fill="#000000" font-family="sans-serif" font-size="22.5" lengthAdjust="spacingAndGlyphs" textLength="277.5" x="56.25" y="524.8737">Mengisi Form Registrasi</text><polygon fill="#FEFCBF" filter="url(#f15kivj0kmwshl)" points="626.25,378.7299,800.625,378.7299,823.125,401.2299,800.625,423.7299,626.25,423.7299,603.75,401.2299,626.25,378.7299" style="stroke: #2B6CB0; stroke-width: 2.8125;"/><text fill="#000000" font-family="sans-serif" font-size="20.625" lengthAdjust="spacingAndGlyphs" textLength="163.125" x="720.9375" y="442.8745">Lupa Password</text><text fill="#000000" font-family="sans-serif" font-size="20.625" lengthAdjust="spacingAndGlyphs" textLength="174.375" x="626.25" y="408.3701">Lupa Password?</text><text fill="#000000" font-family="sans-serif" font-size="20.625" lengthAdjust="spacingAndGlyphs" textLength="125.625" x="823.125" y="396.3657">Sudah Akun</text><line style="stroke: #A80036; stroke-width: 2.8125;" x1="593.4375" x2="1365" y1="992.0563" y2="992.0563"/><rect fill="#EBF8FF" filter="url(#f15kivj0kmwshl)" height="63.6914" rx="23.4375" ry="23.4375" style="stroke: #1A365D; stroke-width: 2.8125;" width="680.625" x="253.125" y="1029.5563"/><text fill="#000000" font-family="sans-serif" font-size="22.5" lengthAdjust="spacingAndGlyphs" textLength="643.125" x="271.875" y="1069.1913">Mencari Produk (Search Typo-Tolerant / Filter Kategori)</text><rect fill="#EBF8FF" filter="url(#f15kivj0kmwshl)" height="63.6914" rx="23.4375" ry="23.4375" style="stroke: #1A365D; stroke-width: 2.8125;" width="757.5" x="986.25" y="1029.5563"/><text fill="#000000" font-family="sans-serif" font-size="22.5" lengthAdjust="spacingAndGlyphs" textLength="720" x="1005" y="1069.1913">Interaksi Chatbot AI Gemini (Tanya Produk / Snap &amp; Buy Foto)</text><line style="stroke: #A80036; stroke-width: 2.8125;" x1="593.4375" x2="1365" y1="1130.7477" y2="1130.7477"/><rect fill="#EBF8FF" filter="url(#f15kivj0kmwshl)" height="63.6914" rx="23.4375" ry="23.4375" style="stroke: #1A365D; stroke-width: 2.8125;" width="528.75" x="734.0625" y="1269.4391"/><text fill="#000000" font-family="sans-serif" font-size="22.5" lengthAdjust="spacingAndGlyphs" textLength="491.25" x="752.8125" y="1309.0741">Menambah Produk ke Keranjang / Wishlist</text><rect fill="#EBF8FF" filter="url(#f15kivj0kmwshl)" height="63.6914" rx="23.4375" ry="23.4375" style="stroke: #1A365D; stroke-width: 2.8125;" width="391.875" x="802.5" y="1471.8219"/><text fill="#000000" font-family="sans-serif" font-size="22.5" lengthAdjust="spacingAndGlyphs" textLength="354.375" x="821.25" y="1511.4569">Melakukan Checkout Pesanan</text><rect fill="#EBF8FF" filter="url(#f15kivj0kmwshl)" height="63.6914" rx="23.4375" ry="23.4375" style="stroke: #1A365D; stroke-width: 2.8125;" width="451.875" x="772.5" y="1674.2047"/><text fill="#000000" font-family="sans-serif" font-size="22.5" lengthAdjust="spacingAndGlyphs" textLength="414.375" x="791.25" y="1713.8397">Pilih Alamat Pengiriman &amp; Pilih Kurir</text><rect fill="#EBF8FF" filter="url(#f15kivj0kmwshl)" height="63.6914" rx="23.4375" ry="23.4375" style="stroke: #1A365D; stroke-width: 2.8125;" width="633.75" x="681.5625" y="1876.5875"/><text fill="#000000" font-family="sans-serif" font-size="22.5" lengthAdjust="spacingAndGlyphs" textLength="596.25" x="700.3125" y="1916.2225">Input Kupon Promo (Opsional) &amp; Scan QRIS Pakasir</text><rect fill="#EBF8FF" filter="url(#f15kivj0kmwshl)" height="63.6914" rx="23.4375" ry="23.4375" style="stroke: #1A365D; stroke-width: 2.8125;" width="693.75" x="651.5625" y="2446.2946"/><text fill="#000000" font-family="sans-serif" font-size="22.5" lengthAdjust="spacingAndGlyphs" textLength="656.25" x="670.3125" y="2485.9296">Lacak Pengiriman (Biteship Tracking) &amp; Terima Pesanan</text><rect fill="#EBF8FF" filter="url(#f15kivj0kmwshl)" height="63.6914" rx="23.4375" ry="23.4375" style="stroke: #1A365D; stroke-width: 2.8125;" width="560.625" x="718.125" y="2648.6774"/><text fill="#000000" font-family="sans-serif" font-size="22.5" lengthAdjust="spacingAndGlyphs" textLength="523.125" x="736.875" y="2688.3124">Menulis Ulasan Produk (Rating, Teks &amp; Foto)</text><rect fill="#EBF8FF" filter="url(#f15kivj0kmwshl)" height="63.6914" rx="23.4375" ry="23.4375" style="stroke: #1A365D; stroke-width: 2.8125;" width="226.875" x="885" y="2851.0602"/><text fill="#000000" font-family="sans-serif" font-size="22.5" lengthAdjust="spacingAndGlyphs" textLength="189.375" x="903.75" y="2890.6952">Mengklik Logout</text><ellipse cx="998.4375" cy="3074.068" fill="#FFFFFF" filter="url(#f15kivj0kmwshl)" rx="20.625" ry="20.625" style="stroke: #000000; stroke-width: 1.875;"/><ellipse cx="998.4375" cy="3074.068" fill="#000000" rx="11.25" ry="11.25" style="stroke: #7F7F7F; stroke-width: 1.875;"/><rect fill="#EBF8FF" filter="url(#f15kivj0kmwshl)" height="63.6914" rx="23.4375" ry="23.4375" style="stroke: #1A365D; stroke-width: 2.8125;" width="601.875" x="2345.625" y="277.5385"/><text fill="#000000" font-family="sans-serif" font-size="22.5" lengthAdjust="spacingAndGlyphs" textLength="564.375" x="2364.375" y="317.1735">Menampilkan Halaman Depan &amp; Katalog Jajanan</text><rect fill="#EBF8FF" filter="url(#f15kivj0kmwshl)" height="63.6914" rx="23.4375" ry="23.4375" style="stroke: #1A365D; stroke-width: 2.8125;" width="296.25" x="1762.5" y="614.5551"/><text fill="#000000" font-family="sans-serif" font-size="22.5" lengthAdjust="spacingAndGlyphs" textLength="258.75" x="1781.25" y="654.1901">Menyimpan Akun Baru</text><rect fill="#EBF8FF" filter="url(#f15kivj0kmwshl)" height="63.6914" rx="23.4375" ry="23.4375" style="stroke: #1A365D; stroke-width: 2.8125;" width="378.75" x="2172.1875" y="485.2386"/><text fill="#000000" font-family="sans-serif" font-size="22.5" lengthAdjust="spacingAndGlyphs" textLength="341.25" x="2190.9375" y="524.8737">Mengisi Email Lupa Password</text><rect fill="#EBF8FF" filter="url(#f15kivj0kmwshl)" height="63.6914" rx="23.4375" ry="23.4375" style="stroke: #1A365D; stroke-width: 2.8125;" width="568.125" x="2077.5" y="614.5551"/><text fill="#000000" font-family="sans-serif" font-size="22.5" lengthAdjust="spacingAndGlyphs" textLength="530.625" x="2096.25" y="654.1901">Kirim Link Reset via Email &amp; Update Password</text><rect fill="#EBF8FF" filter="url(#f15kivj0kmwshl)" height="63.6914" rx="23.4375" ry="23.4375" style="stroke: #1A365D; stroke-width: 2.8125;" width="427.5" x="2922.6563" y="452.2321"/><text fill="#000000" font-family="sans-serif" font-size="22.5" lengthAdjust="spacingAndGlyphs" textLength="390" x="2941.4063" y="491.8671">Mengisi Form Login / Google Auth</text><rect fill="#EBF8FF" filter="url(#f15kivj0kmwshl)" height="63.6914" rx="23.4375" ry="23.4375" style="stroke: #1A365D; stroke-width: 2.8125;" width="393.75" x="2939.5313" y="581.5485"/><text fill="#000000" font-family="sans-serif" font-size="22.5" lengthAdjust="spacingAndGlyphs" textLength="356.25" x="2958.2813" y="621.1835">Validasi Credentials &amp; Session</text><polygon fill="#FEFCBF" filter="url(#f15kivj0kmwshl)" points="3059.5313,710.8649,3213.2813,710.8649,3235.7813,733.3649,3213.2813,755.8649,3059.5313,755.8649,3037.0313,733.3649,3059.5313,710.8649" style="stroke: #2B6CB0; stroke-width: 2.8125;"/><text fill="#000000" font-family="sans-serif" font-size="20.625" lengthAdjust="spacingAndGlyphs" textLength="153.75" x="3059.5313" y="740.5051">Hasil Validasi?</text><text fill="#000000" font-family="sans-serif" font-size="20.625" lengthAdjust="spacingAndGlyphs" textLength="61.875" x="2975.1563" y="728.5007">Gagal</text><text fill="#000000" font-family="sans-serif" font-size="20.625" lengthAdjust="spacingAndGlyphs" textLength="88.125" x="3235.7813" y="728.5007">Berhasil</text><rect fill="#EBF8FF" filter="url(#f15kivj0kmwshl)" height="63.6914" rx="23.4375" ry="23.4375" style="stroke: #1A365D; stroke-width: 2.8125;" width="406.875" x="2701.875" y="774.6149"/><text fill="#000000" font-family="sans-serif" font-size="22.5" lengthAdjust="spacingAndGlyphs" textLength="369.375" x="2720.625" y="814.2499">Menampilkan Pesan Error Login</text><ellipse cx="2905.3125" cy="896.4313" fill="#FFFFFF" filter="url(#f15kivj0kmwshl)" rx="20.625" ry="20.625" style="stroke: #000000; stroke-width: 1.875;"/><ellipse cx="2905.3125" cy="896.4313" fill="#000000" rx="11.25" ry="11.25" style="stroke: #7F7F7F; stroke-width: 1.875;"/><rect fill="#EBF8FF" filter="url(#f15kivj0kmwshl)" height="63.6914" rx="23.4375" ry="23.4375" style="stroke: #1A365D; stroke-width: 2.8125;" width="442.5" x="3146.25" y="774.6149"/><text fill="#000000" font-family="sans-serif" font-size="22.5" lengthAdjust="spacingAndGlyphs" textLength="405" x="3165" y="814.2499">Menampilkan Halaman (Logged In)</text><rect fill="#EBF8FF" filter="url(#f15kivj0kmwshl)" height="63.6914" rx="23.4375" ry="23.4375" style="stroke: #1A365D; stroke-width: 2.8125;" width="596.25" x="2348.4375" y="1168.2477"/><text fill="#000000" font-family="sans-serif" font-size="22.5" lengthAdjust="spacingAndGlyphs" textLength="558.75" x="2367.1875" y="1207.8827">Menampilkan Detail Produk / Respon AI Chatbot</text><rect fill="#EBF8FF" filter="url(#f15kivj0kmwshl)" height="63.6914" rx="23.4375" ry="23.4375" style="stroke: #1A365D; stroke-width: 2.8125;" width="558.75" x="2367.1875" y="1370.6305"/><text fill="#000000" font-family="sans-serif" font-size="22.5" lengthAdjust="spacingAndGlyphs" textLength="521.25" x="2385.9375" y="1410.2655">Update State Keranjang &amp; Wishlist (Livewire)</text><rect fill="#EBF8FF" filter="url(#f15kivj0kmwshl)" height="63.6914" rx="23.4375" ry="23.4375" style="stroke: #1A365D; stroke-width: 2.8125;" width="564.375" x="2364.375" y="1573.0133"/><text fill="#000000" font-family="sans-serif" font-size="22.5" lengthAdjust="spacingAndGlyphs" textLength="526.875" x="2383.125" y="1612.6483">Validasi Telepon &amp; Tampilkan Form Checkout</text><rect fill="#EBF8FF" filter="url(#f15kivj0kmwshl)" height="63.6914" rx="23.4375" ry="23.4375" style="stroke: #1A365D; stroke-width: 2.8125;" width="521.25" x="2385.9375" y="1775.3961"/><text fill="#000000" font-family="sans-serif" font-size="22.5" lengthAdjust="spacingAndGlyphs" textLength="483.75" x="2404.6875" y="1815.0311">Kalkulasi Ongkir Real-time via Biteship API</text><rect fill="#EBF8FF" filter="url(#f15kivj0kmwshl)" height="63.6914" rx="23.4375" ry="23.4375" style="stroke: #1A365D; stroke-width: 2.8125;" width="532.5" x="2380.3125" y="1977.7789"/><text fill="#000000" font-family="sans-serif" font-size="22.5" lengthAdjust="spacingAndGlyphs" textLength="495" x="2399.0625" y="2017.4139">Webhook Pakasir + Verifikasi Otoritatif API</text><polygon fill="#FEFCBF" filter="url(#f15kivj0kmwshl)" points="2535.9375,2078.9703,2757.1875,2078.9703,2779.6875,2101.4703,2757.1875,2123.9703,2535.9375,2123.9703,2513.4375,2101.4703,2535.9375,2078.9703" style="stroke: #2B6CB0; stroke-width: 2.8125;"/><text fill="#000000" font-family="sans-serif" font-size="20.625" lengthAdjust="spacingAndGlyphs" textLength="221.25" x="2535.9375" y="2108.6105">Status Pembayaran?</text><text fill="#000000" font-family="sans-serif" font-size="20.625" lengthAdjust="spacingAndGlyphs" textLength="163.125" x="2350.3125" y="2096.6061">Gagal / Expired</text><text fill="#000000" font-family="sans-serif" font-size="20.625" lengthAdjust="spacingAndGlyphs" textLength="131.25" x="2779.6875" y="2096.6061">Lunas / Paid</text><rect fill="#EBF8FF" filter="url(#f15kivj0kmwshl)" height="63.6914" rx="23.4375" ry="23.4375" style="stroke: #1A365D; stroke-width: 2.8125;" width="427.5" x="2170.3125" y="2142.7203"/><text fill="#000000" font-family="sans-serif" font-size="22.5" lengthAdjust="spacingAndGlyphs" textLength="390" x="2189.0625" y="2182.3553">Status Order Pending / Cancelled</text><ellipse cx="2384.0625" cy="2264.5367" fill="#FFFFFF" filter="url(#f15kivj0kmwshl)" rx="20.625" ry="20.625" style="stroke: #000000; stroke-width: 1.875;"/><ellipse cx="2384.0625" cy="2264.5367" fill="#000000" rx="11.25" ry="11.25" style="stroke: #7F7F7F; stroke-width: 1.875;"/><rect fill="#EBF8FF" filter="url(#f15kivj0kmwshl)" height="63.6914" rx="23.4375" ry="23.4375" style="stroke: #1A365D; stroke-width: 2.8125;" width="365.625" x="2726.25" y="2142.7203"/><text fill="#000000" font-family="sans-serif" font-size="22.5" lengthAdjust="spacingAndGlyphs" textLength="328.125" x="2745" y="2182.3553">Update Order Status = Paid</text><rect fill="#EBF8FF" filter="url(#f15kivj0kmwshl)" height="63.6914" rx="23.4375" ry="23.4375" style="stroke: #1A365D; stroke-width: 2.8125;" width="547.5" x="2635.3125" y="2243.9117"/><text fill="#000000" font-family="sans-serif" font-size="22.5" lengthAdjust="spacingAndGlyphs" textLength="510" x="2654.0625" y="2283.5468">Pengurangan Stok Atomik (DB Transaction)</text><rect fill="#EBF8FF" filter="url(#f15kivj0kmwshl)" height="63.6914" rx="23.4375" ry="23.4375" style="stroke: #1A365D; stroke-width: 2.8125;" width="436.875" x="2690.625" y="2345.1031"/><text fill="#000000" font-family="sans-serif" font-size="22.5" lengthAdjust="spacingAndGlyphs" textLength="399.375" x="2709.375" y="2384.7382">Auto Booking Kurir via Biteship API</text><rect fill="#EBF8FF" filter="url(#f15kivj0kmwshl)" height="63.6914" rx="23.4375" ry="23.4375" style="stroke: #1A365D; stroke-width: 2.8125;" width="440.625" x="2426.25" y="2547.486"/><text fill="#000000" font-family="sans-serif" font-size="22.5" lengthAdjust="spacingAndGlyphs" textLength="403.125" x="2445" y="2587.121">Update Status Order = Completed</text><rect fill="#EBF8FF" filter="url(#f15kivj0kmwshl)" height="63.6914" rx="23.4375" ry="23.4375" style="stroke: #1A365D; stroke-width: 2.8125;" width="600" x="2346.5625" y="2749.8688"/><text fill="#000000" font-family="sans-serif" font-size="22.5" lengthAdjust="spacingAndGlyphs" textLength="562.5" x="2365.3125" y="2789.5038">Menyimpan Ulasan (Menunggu Moderasi Admin)</text><rect fill="#EBF8FF" filter="url(#f15kivj0kmwshl)" height="63.6914" rx="23.4375" ry="23.4375" style="stroke: #1A365D; stroke-width: 2.8125;" width="435" x="2429.0625" y="2952.2516"/><text fill="#000000" font-family="sans-serif" font-size="22.5" lengthAdjust="spacingAndGlyphs" textLength="397.5" x="2447.8125" y="2991.8866">Destroy Session &amp; Redirect Guest</text><line style="stroke: #A80036; stroke-width: 2.8125;" x1="998.4375" x2="998.4375" y1="138.847" y2="176.347"/><polygon fill="#A80036" points="990.9375,157.597,998.4375,176.347,1005.9375,157.597,998.4375,165.097" style="stroke: #A80036; stroke-width: 1.875;"/><line style="stroke: #A80036; stroke-width: 2.8125;" x1="195" x2="195" y1="423.7299" y2="485.2386"/><polygon fill="#A80036" points="187.5,466.4886,195,485.2386,202.5,466.4886,195,473.9886" style="stroke: #A80036; stroke-width: 1.875;"/><line style="stroke: #A80036; stroke-width: 2.8125;" x1="286.875" x2="603.75" y1="401.2299" y2="401.2299"/><polygon fill="#A80036" points="585,393.7299,603.75,401.2299,585,408.7299,592.5,401.2299" style="stroke: #A80036; stroke-width: 1.875;"/><line style="stroke: #A80036; stroke-width: 2.8125;" x1="2646.5625" x2="2646.5625" y1="341.2299" y2="350.6049"/><line style="stroke: #A80036; stroke-width: 2.8125;" x1="2646.5625" x2="195" y1="350.6049" y2="350.6049"/><line style="stroke: #A80036; stroke-width: 2.8125;" x1="195" x2="195" y1="350.6049" y2="378.7299"/><polygon fill="#A80036" points="187.5,359.9799,195,378.7299,202.5,359.9799,195,367.4799" style="stroke: #A80036; stroke-width: 1.875;"/><line style="stroke: #A80036; stroke-width: 2.8125;" x1="593.4375" x2="593.4375" y1="994.8688" y2="1029.5563"/><polygon fill="#A80036" points="585.9375,1010.8063,593.4375,1029.5563,600.9375,1010.8063,593.4375,1018.3063" style="stroke: #A80036; stroke-width: 1.875;"/><line style="stroke: #A80036; stroke-width: 2.8125;" x1="1365" x2="1365" y1="994.8688" y2="1029.5563"/><polygon fill="#A80036" points="1357.5,1010.8063,1365,1029.5563,1372.5,1010.8063,1365,1018.3063" style="stroke: #A80036; stroke-width: 1.875;"/><line style="stroke: #A80036; stroke-width: 2.8125;" x1="593.4375" x2="593.4375" y1="1093.2477" y2="1130.7477"/><polygon fill="#A80036" points="585.9375,1111.9977,593.4375,1130.7477,600.9375,1111.9977,593.4375,1119.4977" style="stroke: #A80036; stroke-width: 1.875;"/><line style="stroke: #A80036; stroke-width: 2.8125;" x1="1365" x2="1365" y1="1093.2477" y2="1130.7477"/><polygon fill="#A80036" points="1357.5,1111.9977,1365,1130.7477,1372.5,1111.9977,1365,1119.4977" style="stroke: #A80036; stroke-width: 1.875;"/><line style="stroke: #A80036; stroke-width: 2.8125;" x1="998.4375" x2="998.4375" y1="954.5563" y2="992.0563"/><polygon fill="#A80036" points="990.9375,973.3063,998.4375,992.0563,1005.9375,973.3063,998.4375,980.8063" style="stroke: #A80036; stroke-width: 1.875;"/><line style="stroke: #A80036; stroke-width: 2.8125;" x1="2361.5625" x2="2361.5625" y1="548.9301" y2="614.5551"/><polygon fill="#A80036" points="2354.0625,595.8051,2361.5625,614.5551,2369.0625,595.8051,2361.5625,603.3051" style="stroke: #A80036; stroke-width: 1.875;"/><line style="stroke: #A80036; stroke-width: 2.8125;" x1="3136.4063" x2="3136.4063" y1="515.9235" y2="581.5485"/><polygon fill="#A80036" points="3128.9063,562.7985,3136.4063,581.5485,3143.9063,562.7985,3136.4063,570.2985" style="stroke: #A80036; stroke-width: 1.875;"/><line style="stroke: #A80036; stroke-width: 2.8125;" x1="2905.3125" x2="2905.3125" y1="838.3063" y2="875.8063"/><polygon fill="#A80036" points="2897.8125,857.0563,2905.3125,875.8063,2912.8125,857.0563,2905.3125,864.5563" style="stroke: #A80036; stroke-width: 1.875;"/><line style="stroke: #A80036; stroke-width: 2.8125;" x1="3037.0313" x2="2905.3125" y1="733.3649" y2="733.3649"/><line style="stroke: #A80036; stroke-width: 2.8125;" x1="2905.3125" x2="2905.3125" y1="733.3649" y2="774.6149"/><polygon fill="#A80036" points="2897.8125,755.8649,2905.3125,774.6149,2912.8125,755.8649,2905.3125,763.3649" style="stroke: #A80036; stroke-width: 1.875;"/><line style="stroke: #A80036; stroke-width: 2.8125;" x1="3235.7813" x2="3367.5" y1="733.3649" y2="733.3649"/><line style="stroke: #A80036; stroke-width: 2.8125;" x1="3367.5" x2="3367.5" y1="733.3649" y2="774.6149"/><polygon fill="#A80036" points="3360,755.8649,3367.5,774.6149,3375,755.8649,3367.5,763.3649" style="stroke: #A80036; stroke-width: 1.875;"/><line style="stroke: #A80036; stroke-width: 2.8125;" x1="3367.5" x2="3367.5" y1="838.3063" y2="926.4313"/><line style="stroke: #A80036; stroke-width: 2.8125;" x1="3367.5" x2="3136.4063" y1="926.4313" y2="926.4313"/><line style="stroke: #A80036; stroke-width: 2.8125;" x1="3136.4063" x2="3136.4063" y1="926.4313" y2="954.5563"/><polygon fill="#A80036" points="3128.9063,935.8063,3136.4063,954.5563,3143.9063,935.8063,3136.4063,943.3063" style="stroke: #A80036; stroke-width: 1.875;"/><line style="stroke: #A80036; stroke-width: 2.8125;" x1="3136.4063" x2="3136.4063" y1="645.2399" y2="710.8649"/><polygon fill="#A80036" points="3128.9063,692.1149,3136.4063,710.8649,3143.9063,692.1149,3136.4063,699.6149" style="stroke: #A80036; stroke-width: 1.875;"/><line style="stroke: #A80036; stroke-width: 2.8125;" x1="1910.625" x2="1910.625" y1="678.2465" y2="954.5563"/><polygon fill="#A80036" points="1903.125,935.8063,1910.625,954.5563,1918.125,935.8063,1910.625,943.3063" style="stroke: #A80036; stroke-width: 1.875;"/><line style="stroke: #A80036; stroke-width: 2.8125;" x1="2361.5625" x2="2361.5625" y1="678.2465" y2="954.5563"/><polygon fill="#A80036" points="2354.0625,935.8063,2361.5625,954.5563,2369.0625,935.8063,2361.5625,943.3063" style="stroke: #A80036; stroke-width: 1.875;"/><line style="stroke: #A80036; stroke-width: 2.8125;" x1="1910.625" x2="3136.4063" y1="954.5563" y2="954.5563"/><line style="stroke: #A80036; stroke-width: 2.8125;" x1="2384.0625" x2="2384.0625" y1="2206.4117" y2="2243.9117"/><polygon fill="#A80036" points="2376.5625,2225.1617,2384.0625,2243.9117,2391.5625,2225.1617,2384.0625,2232.6617" style="stroke: #A80036; stroke-width: 1.875;"/><line style="stroke: #A80036; stroke-width: 2.8125;" x1="2909.0625" x2="2909.0625" y1="2206.4117" y2="2243.9117"/><polygon fill="#A80036" points="2901.5625,2225.1617,2909.0625,2243.9117,2916.5625,2225.1617,2909.0625,2232.6617" style="stroke: #A80036; stroke-width: 1.875;"/><line style="stroke: #A80036; stroke-width: 2.8125;" x1="2909.0625" x2="2909.0625" y1="2307.6031" y2="2345.1031"/><polygon fill="#A80036" points="2901.5625,2326.3531,2909.0625,2345.1031,2916.5625,2326.3531,2909.0625,2333.8531" style="stroke: #A80036; stroke-width: 1.875;"/><line style="stroke: #A80036; stroke-width: 2.8125;" x1="2513.4375" x2="2384.0625" y1="2101.4703" y2="2101.4703"/><line style="stroke: #A80036; stroke-width: 2.8125;" x1="2384.0625" x2="2384.0625" y1="2101.4703" y2="2142.7203"/><polygon fill="#A80036" points="2376.5625,2123.9703,2384.0625,2142.7203,2391.5625,2123.9703,2384.0625,2131.4703" style="stroke: #A80036; stroke-width: 1.875;"/><line style="stroke: #A80036; stroke-width: 2.8125;" x1="2779.6875" x2="2909.0625" y1="2101.4703" y2="2101.4703"/><line style="stroke: #A80036; stroke-width: 2.8125;" x1="2909.0625" x2="2909.0625" y1="2101.4703" y2="2142.7203"/><polygon fill="#A80036" points="2901.5625,2123.9703,2909.0625,2142.7203,2916.5625,2123.9703,2909.0625,2131.4703" style="stroke: #A80036; stroke-width: 1.875;"/><line style="stroke: #A80036; stroke-width: 2.8125;" x1="2909.0625" x2="2909.0625" y1="2408.7946" y2="2418.1696"/><line style="stroke: #A80036; stroke-width: 2.8125;" x1="2909.0625" x2="998.4375" y1="2418.1696" y2="2418.1696"/><line style="stroke: #A80036; stroke-width: 2.8125;" x1="998.4375" x2="998.4375" y1="2418.1696" y2="2446.2946"/><polygon fill="#A80036" points="990.9375,2427.5446,998.4375,2446.2946,1005.9375,2427.5446,998.4375,2435.0446" style="stroke: #A80036; stroke-width: 1.875;"/><line style="stroke: #A80036; stroke-width: 2.8125;" x1="2646.5625" x2="2646.5625" y1="2041.4703" y2="2078.9703"/><polygon fill="#A80036" points="2639.0625,2060.2203,2646.5625,2078.9703,2654.0625,2060.2203,2646.5625,2067.7203" style="stroke: #A80036; stroke-width: 1.875;"/><line style="stroke: #A80036; stroke-width: 2.8125;" x1="998.4375" x2="998.4375" y1="240.0385" y2="249.4135"/><line style="stroke: #A80036; stroke-width: 2.8125;" x1="998.4375" x2="2646.5625" y1="249.4135" y2="249.4135"/><line style="stroke: #A80036; stroke-width: 2.8125;" x1="2646.5625" x2="2646.5625" y1="249.4135" y2="277.5385"/><polygon fill="#A80036" points="2639.0625,258.7885,2646.5625,277.5385,2654.0625,258.7885,2646.5625,266.2885" style="stroke: #A80036; stroke-width: 1.875;"/><line style="stroke: #A80036; stroke-width: 2.8125;" x1="195" x2="195" y1="548.9301" y2="581.7426"/><line style="stroke: #A80036; stroke-width: 2.8125;" x1="195" x2="1910.625" y1="581.7426" y2="581.7426"/><line style="stroke: #A80036; stroke-width: 2.8125;" x1="1910.625" x2="1910.625" y1="581.7426" y2="614.5551"/><polygon fill="#A80036" points="1903.125,595.8051,1910.625,614.5551,1918.125,595.8051,1910.625,603.3051" style="stroke: #A80036; stroke-width: 1.875;"/><line style="stroke: #A80036; stroke-width: 2.8125;" x1="713.4375" x2="713.4375" y1="423.7299" y2="431.2299"/><line style="stroke: #A80036; stroke-width: 2.8125;" x1="713.4375" x2="2361.5625" y1="431.2299" y2="431.2299"/><line style="stroke: #A80036; stroke-width: 2.8125;" x1="2361.5625" x2="2361.5625" y1="431.2299" y2="485.2386"/><polygon fill="#A80036" points="2354.0625,466.4886,2361.5625,485.2386,2369.0625,466.4886,2361.5625,473.9886" style="stroke: #A80036; stroke-width: 1.875;"/><line style="stroke: #A80036; stroke-width: 2.8125;" x1="998.4375" x2="998.4375" y1="1133.5602" y2="1140.1227"/><line style="stroke: #A80036; stroke-width: 2.8125;" x1="998.4375" x2="2646.5625" y1="1140.1227" y2="1140.1227"/><line style="stroke: #A80036; stroke-width: 2.8125;" x1="2646.5625" x2="2646.5625" y1="1140.1227" y2="1168.2477"/><polygon fill="#A80036" points="2639.0625,1149.4977,2646.5625,1168.2477,2654.0625,1149.4977,2646.5625,1156.9977" style="stroke: #A80036; stroke-width: 1.875;"/><line style="stroke: #A80036; stroke-width: 2.8125;" x1="2646.5625" x2="2646.5625" y1="1231.9391" y2="1241.3141"/><line style="stroke: #A80036; stroke-width: 2.8125;" x1="2646.5625" x2="998.4375" y1="1241.3141" y2="1241.3141"/><line style="stroke: #A80036; stroke-width: 2.8125;" x1="998.4375" x2="998.4375" y1="1241.3141" y2="1269.4391"/><polygon fill="#A80036" points="990.9375,1250.6891,998.4375,1269.4391,1005.9375,1250.6891,998.4375,1258.1891" style="stroke: #A80036; stroke-width: 1.875;"/><line style="stroke: #A80036; stroke-width: 2.8125;" x1="998.4375" x2="998.4375" y1="1333.1305" y2="1342.5055"/><line style="stroke: #A80036; stroke-width: 2.8125;" x1="998.4375" x2="2646.5625" y1="1342.5055" y2="1342.5055"/><line style="stroke: #A80036; stroke-width: 2.8125;" x1="2646.5625" x2="2646.5625" y1="1342.5055" y2="1370.6305"/><polygon fill="#A80036" points="2639.0625,1351.8805,2646.5625,1370.6305,2654.0625,1351.8805,2646.5625,1359.3805" style="stroke: #A80036; stroke-width: 1.875;"/><line style="stroke: #A80036; stroke-width: 2.8125;" x1="2646.5625" x2="2646.5625" y1="1434.3219" y2="1443.6969"/><line style="stroke: #A80036; stroke-width: 2.8125;" x1="2646.5625" x2="998.4375" y1="1443.6969" y2="1443.6969"/><line style="stroke: #A80036; stroke-width: 2.8125;" x1="998.4375" x2="998.4375" y1="1443.6969" y2="1471.8219"/><polygon fill="#A80036" points="990.9375,1453.0719,998.4375,1471.8219,1005.9375,1453.0719,998.4375,1460.5719" style="stroke: #A80036; stroke-width: 1.875;"/><line style="stroke: #A80036; stroke-width: 2.8125;" x1="998.4375" x2="998.4375" y1="1535.5133" y2="1544.8883"/><line style="stroke: #A80036; stroke-width: 2.8125;" x1="998.4375" x2="2646.5625" y1="1544.8883" y2="1544.8883"/><line style="stroke: #A80036; stroke-width: 2.8125;" x1="2646.5625" x2="2646.5625" y1="1544.8883" y2="1573.0133"/><polygon fill="#A80036" points="2639.0625,1554.2633,2646.5625,1573.0133,2654.0625,1554.2633,2646.5625,1561.7633" style="stroke: #A80036; stroke-width: 1.875;"/><line style="stroke: #A80036; stroke-width: 2.8125;" x1="2646.5625" x2="2646.5625" y1="1636.7047" y2="1646.0797"/><line style="stroke: #A80036; stroke-width: 2.8125;" x1="2646.5625" x2="998.4375" y1="1646.0797" y2="1646.0797"/><line style="stroke: #A80036; stroke-width: 2.8125;" x1="998.4375" x2="998.4375" y1="1646.0797" y2="1674.2047"/><polygon fill="#A80036" points="990.9375,1655.4547,998.4375,1674.2047,1005.9375,1655.4547,998.4375,1662.9547" style="stroke: #A80036; stroke-width: 1.875;"/><line style="stroke: #A80036; stroke-width: 2.8125;" x1="998.4375" x2="998.4375" y1="1737.8961" y2="1747.2711"/><line style="stroke: #A80036; stroke-width: 2.8125;" x1="998.4375" x2="2646.5625" y1="1747.2711" y2="1747.2711"/><line style="stroke: #A80036; stroke-width: 2.8125;" x1="2646.5625" x2="2646.5625" y1="1747.2711" y2="1775.3961"/><polygon fill="#A80036" points="2639.0625,1756.6461,2646.5625,1775.3961,2654.0625,1756.6461,2646.5625,1764.1461" style="stroke: #A80036; stroke-width: 1.875;"/><line style="stroke: #A80036; stroke-width: 2.8125;" x1="2646.5625" x2="2646.5625" y1="1839.0875" y2="1848.4625"/><line style="stroke: #A80036; stroke-width: 2.8125;" x1="2646.5625" x2="998.4375" y1="1848.4625" y2="1848.4625"/><line style="stroke: #A80036; stroke-width: 2.8125;" x1="998.4375" x2="998.4375" y1="1848.4625" y2="1876.5875"/><polygon fill="#A80036" points="990.9375,1857.8375,998.4375,1876.5875,1005.9375,1857.8375,998.4375,1865.3375" style="stroke: #A80036; stroke-width: 1.875;"/><line style="stroke: #A80036; stroke-width: 2.8125;" x1="998.4375" x2="998.4375" y1="1940.2789" y2="1949.6539"/><line style="stroke: #A80036; stroke-width: 2.8125;" x1="998.4375" x2="2646.5625" y1="1949.6539" y2="1949.6539"/><line style="stroke: #A80036; stroke-width: 2.8125;" x1="2646.5625" x2="2646.5625" y1="1949.6539" y2="1977.7789"/><polygon fill="#A80036" points="2639.0625,1959.0289,2646.5625,1977.7789,2654.0625,1959.0289,2646.5625,1966.5289" style="stroke: #A80036; stroke-width: 1.875;"/><line style="stroke: #A80036; stroke-width: 2.8125;" x1="998.4375" x2="998.4375" y1="2509.986" y2="2519.361"/><line style="stroke: #A80036; stroke-width: 2.8125;" x1="998.4375" x2="2646.5625" y1="2519.361" y2="2519.361"/><line style="stroke: #A80036; stroke-width: 2.8125;" x1="2646.5625" x2="2646.5625" y1="2519.361" y2="2547.486"/><polygon fill="#A80036" points="2639.0625,2528.736,2646.5625,2547.486,2654.0625,2528.736,2646.5625,2536.236" style="stroke: #A80036; stroke-width: 1.875;"/><line style="stroke: #A80036; stroke-width: 2.8125;" x1="2646.5625" x2="2646.5625" y1="2611.1774" y2="2620.5524"/><line style="stroke: #A80036; stroke-width: 2.8125;" x1="2646.5625" x2="998.4375" y1="2620.5524" y2="2620.5524"/><line style="stroke: #A80036; stroke-width: 2.8125;" x1="998.4375" x2="998.4375" y1="2620.5524" y2="2648.6774"/><polygon fill="#A80036" points="990.9375,2629.9274,998.4375,2648.6774,1005.9375,2629.9274,998.4375,2637.4274" style="stroke: #A80036; stroke-width: 1.875;"/><line style="stroke: #A80036; stroke-width: 2.8125;" x1="998.4375" x2="998.4375" y1="2712.3688" y2="2721.7438"/><line style="stroke: #A80036; stroke-width: 2.8125;" x1="998.4375" x2="2646.5625" y1="2721.7438" y2="2721.7438"/><line style="stroke: #A80036; stroke-width: 2.8125;" x1="2646.5625" x2="2646.5625" y1="2721.7438" y2="2749.8688"/><polygon fill="#A80036" points="2639.0625,2731.1188,2646.5625,2749.8688,2654.0625,2731.1188,2646.5625,2738.6188" style="stroke: #A80036; stroke-width: 1.875;"/><line style="stroke: #A80036; stroke-width: 2.8125;" x1="2646.5625" x2="2646.5625" y1="2813.5602" y2="2822.9352"/><line style="stroke: #A80036; stroke-width: 2.8125;" x1="2646.5625" x2="998.4375" y1="2822.9352" y2="2822.9352"/><line style="stroke: #A80036; stroke-width: 2.8125;" x1="998.4375" x2="998.4375" y1="2822.9352" y2="2851.0602"/><polygon fill="#A80036" points="990.9375,2832.3102,998.4375,2851.0602,1005.9375,2832.3102,998.4375,2839.8102" style="stroke: #A80036; stroke-width: 1.875;"/><line style="stroke: #A80036; stroke-width: 2.8125;" x1="998.4375" x2="998.4375" y1="2914.7516" y2="2924.1266"/><line style="stroke: #A80036; stroke-width: 2.8125;" x1="998.4375" x2="2646.5625" y1="2924.1266" y2="2924.1266"/><line style="stroke: #A80036; stroke-width: 2.8125;" x1="2646.5625" x2="2646.5625" y1="2924.1266" y2="2952.2516"/><polygon fill="#A80036" points="2639.0625,2933.5016,2646.5625,2952.2516,2654.0625,2933.5016,2646.5625,2941.0016" style="stroke: #A80036; stroke-width: 1.875;"/><line style="stroke: #A80036; stroke-width: 2.8125;" x1="2646.5625" x2="2646.5625" y1="3015.943" y2="3025.318"/><line style="stroke: #A80036; stroke-width: 2.8125;" x1="2646.5625" x2="998.4375" y1="3025.318" y2="3025.318"/><line style="stroke: #A80036; stroke-width: 2.8125;" x1="998.4375" x2="998.4375" y1="3025.318" y2="3053.443"/><polygon fill="#A80036" points="990.9375,3034.693,998.4375,3053.443,1005.9375,3034.693,998.4375,3042.193" style="stroke: #A80036; stroke-width: 1.875;"/><text fill="#000000" font-family="sans-serif" font-size="26.25" font-weight="bold" lengthAdjust="spacingAndGlyphs" textLength="153.75" x="812.8125" y="85.7813">Pelanggan</text><text fill="#000000" font-family="sans-serif" font-size="26.25" font-weight="bold" lengthAdjust="spacingAndGlyphs" textLength="99.375" x="2591.25" y="85.7813">Sistem</text><line style="stroke: #A0AEC0; stroke-width: 3.75;" x1="18.75" x2="18.75" y1="61.4154" y2="3094.693"/><line style="stroke: #A0AEC0; stroke-width: 3.75;" x1="1753.125" x2="1753.125" y1="61.4154" y2="3094.693"/><line style="stroke: #A0AEC0; stroke-width: 3.75;" x1="3605.625" x2="3605.625" y1="61.4154" y2="3094.693"/><!--MD5=[8889b1ab3e70955cc8f8e042554afcd5]
@startuml
skinparam dpi 180
skinparam defaultFontName "SansSerif"
skinparam ActivityFontSize 12
skinparam ActivityBorderColor #1A365D
skinparam ActivityBackgroundColor #EBF8FF
skinparam ActivityDiamondBorderColor #2B6CB0
skinparam ActivityDiamondBackgroundColor #FEFCBF
skinparam SwimlaneTitleFontSize 14
skinparam SwimlaneTitleFontStyle bold
skinparam SwimlaneBorderColor #A0AEC0
skinparam SwimlaneWidth 280

title **ACTIVITY DIAGRAM PELANGGAN - GEGARES**

|Pelanggan|
start
:Membuka Website Gegares;

|Sistem|
:Menampilkan Halaman Depan & Katalog Jajanan;

|Pelanggan|
if (Status Akun?) then (Belum Punya Akun)
  :Mengisi Form Registrasi;
  |Sistem|
  :Menyimpan Akun Baru;
else if (Lupa Password?) then (Lupa Password)
  :Mengisi Email Lupa Password;
  |Sistem|
  :Kirim Link Reset via Email & Update Password;
else (Sudah Akun)
  :Mengisi Form Login / Google Auth;
  |Sistem|
  :Validasi Credentials & Session;
  if (Hasil Validasi?) then (Gagal)
    :Menampilkan Pesan Error Login;
    stop
  else (Berhasil)
    :Menampilkan Halaman (Logged In);
  endif
endif

|Pelanggan|
split
  :Mencari Produk (Search Typo-Tolerant / Filter Kategori);
split again
  :Interaksi Chatbot AI Gemini (Tanya Produk / Snap & Buy Foto);
end split

|Sistem|
:Menampilkan Detail Produk / Respon AI Chatbot;

|Pelanggan|
:Menambah Produk ke Keranjang / Wishlist;

|Sistem|
:Update State Keranjang & Wishlist (Livewire);

|Pelanggan|
:Melakukan Checkout Pesanan;

|Sistem|
:Validasi Telepon & Tampilkan Form Checkout;

|Pelanggan|
:Pilih Alamat Pengiriman & Pilih Kurir;

|Sistem|
:Kalkulasi Ongkir Real-time via Biteship API;

|Pelanggan|
:Input Kupon Promo (Opsional) & Scan QRIS Pakasir;

|Sistem|
:Webhook Pakasir + Verifikasi Otoritatif API;
if (Status Pembayaran?) then (Gagal / Expired)
  :Status Order Pending / Cancelled;
  stop
else (Lunas / Paid)
  :Update Order Status = Paid;
  :Pengurangan Stok Atomik (DB Transaction);
  :Auto Booking Kurir via Biteship API;
endif

|Pelanggan|
:Lacak Pengiriman (Biteship Tracking) & Terima Pesanan;

|Sistem|
:Update Status Order = Completed;

|Pelanggan|
:Menulis Ulasan Produk (Rating, Teks & Foto);

|Sistem|
:Menyimpan Ulasan (Menunggu Moderasi Admin);

|Pelanggan|
:Mengklik Logout;

|Sistem|
:Destroy Session & Redirect Guest;

|Pelanggan|
stop
@enduml

PlantUML version 1.2020.02(Sun Mar 01 18:22:07 CST 2020)
(GPL source distribution)
Java Runtime: OpenJDK Runtime Environment
JVM: OpenJDK 64-Bit Server VM
Java Version: 11.0.31+11-post-1ubuntu1-22.04.2-Ubuntu
Operating System: Linux
Default Encoding: UTF-8
Language: en
Country: US
--></g></svg>